<?xml version="1.0" encoding="utf-8"?>
<!-- Generator: Adobe Illustrator 23.1.1, SVG Export Plug-In . SVG Version: 6.00 Build 0)  -->
<svg version="1.1" id="_x2014_ÎÓÈ_x5F_1" xmlns="http://www.w3.org/2000/svg" xmlns:xlink="http://www.w3.org/1999/xlink"
	 x="0px" y="0px" viewBox="0 0 1904 505" style="enable-background:new 0 0 1904 505;" xml:space="preserve">
<style type="text/css">
	.st0{fill:#004C65;}
	.st1{fill:#F9D302;}
	.st2{fill:#E85627;}
	.st3{fill:none;stroke:#E85627;stroke-width:0.5;stroke-miterlimit:10;}
	.st4{fill:none;stroke:#F9D302;stroke-width:0.5;stroke-miterlimit:10;}
	.st5{fill:none;stroke:#004C65;stroke-width:0.5;stroke-miterlimit:10;}
</style>
<g>
	<circle class="st0" cx="1366.3" cy="497.3" r="6.9"/>
	<path class="st0" d="M1073.9,7.2c0,4-3.2,7.2-7.2,7.2s-7.2-3.2-7.2-7.2s3.2-7.2,7.2-7.2S1073.9,3.2,1073.9,7.2z"/>
	<path class="st0" d="M542.3,338.8c0,3.5-2.8,6.4-6.4,6.4c-3.5,0-6.4-2.8-6.4-6.4c0-3.5,2.8-6.4,6.4-6.4S542.3,335.3,542.3,338.8z"
		/>
</g>
<g>
	<path class="st1" d="M1659.9,471c0,3.8-3.1,6.9-6.9,6.9s-6.9-3.1-6.9-6.9s3.1-6.9,6.9-6.9C1656.8,464,1659.9,467.1,1659.9,471z"/>
	<path class="st1" d="M1056.6,466.6c0,3.8-3.1,6.9-6.9,6.9s-6.9-3.1-6.9-6.9s3.1-6.9,6.9-6.9
		C1053.5,459.6,1056.6,462.7,1056.6,466.6z"/>
	<circle class="st1" cx="1306.7" cy="326.9" r="10.1"/>
	<path class="st1" d="M563.3,252c0,3.9-3.2,7.1-7.1,7.1s-7.1-3.2-7.1-7.1c0-3.9,3.2-7.1,7.1-7.1S563.3,248.1,563.3,252z"/>
	<path class="st1" d="M355.9,351.7c0,5.3-4.3,9.6-9.6,9.6c-5.3,0-9.6-4.3-9.6-9.6c0-5.3,4.3-9.6,9.6-9.6S355.9,346.4,355.9,351.7z"
		/>
</g>
<g>
	<path class="st2" d="M333,19.6c0,3.8-3.1,6.9-6.9,6.9s-6.9-3.1-6.9-6.9s3.1-6.9,6.9-6.9C329.9,12.6,333,15.7,333,19.6z"/>
	<circle class="st2" cx="1094.5" cy="258.3" r="10.1"/>
	<circle class="st2" cx="1695.4" cy="150.8" r="6.9"/>
</g>
<path class="st3" d="M-0.8,241.1l232.2-70.6c15.2-4.6,27.9-15.1,35.4-29l45.1-84c5.4-10.1,20.1-9.5,24.7,1L404,212.9
	c6.7,15.4,19.6,27.3,35.5,32.8L673,325.8c6.9,2.4,14.2,3.5,21.6,3.2l109.6-3.8c15.4-0.5,30.7-2.1,45.8-4.6l219.6-36.5
	c14.1-2.3,28.6,0.4,40.8,7.8l146.7,88.2c18.3,11,41,11.5,59.7,1.2l349.3-190.9c17-9.3,38.1-5.9,51.3,8.3l185.9,199"/>
<path class="st4" d="M-0.7,217.6l240.8,0.3c15.7,0,30.5,7.6,39.6,20.3l53.3,73.9c8.4,11.6,23.2,16.8,37,12.8l170.4-48.6
	c8.9-2.5,18.3-2.5,27.2,0.1l144.1,42.3c2.6,0.8,5.1,1.7,7.5,2.9l121,58.5c1.7,0.8,3.4,1.5,5.2,2.1l187.1,65.3
	c11,3.8,23,3.6,33.8-0.6l216.5-84.1c13.8-5.3,29.2-4.2,42,3.1l128.6,73.6c6.6,3.8,14.1,6,21.7,6.4l162.7,8.6c8,0.4,16-1.1,23.2-4.5
	l242.3-112.8"/>
<path class="st5" d="M1904,389.9l-188.7-81.2c-11.7-5-24.3-7.5-37-7.4l-208.1,2.6c-7.5,0.1-14.3,4.2-17.9,10.8l-76.1,139.8
	c-6.8,12.4-23.7,14.5-33.3,4.2l-16.2-17.4c-26.8-28.9-50.4-60.5-70.4-94.5L1082.7,52.1c-7.9-13.4-27.2-13.6-35.3-0.4L836,392.8
	c-8.1,13.1-27.3,13-35.2-0.2L698.7,223.2c-6.3-10.4-20.2-13.2-30-6l-125.4,92.5c-4.6,3.4-10.5,4.7-16.1,3.7l-262.6-50.2
	c-1.3-0.2-2.6-0.6-3.8-1.1L-0.5,157.2"/>
</svg>
