<?xml version="1.0" encoding="utf-8"?>
<!-- Generator: Adobe Illustrator 23.1.1, SVG Export Plug-In . SVG Version: 6.00 Build 0)  -->
<svg version="1.1" id="_x2014_ÎÓÈ_x5F_1" xmlns="http://www.w3.org/2000/svg" xmlns:xlink="http://www.w3.org/1999/xlink"
	 x="0px" y="0px" viewBox="0 0 1904 443.3" style="enable-background:new 0 0 1904 443.3;" xml:space="preserve">
<style type="text/css">
	.st0{fill:#FFFFFF;}
</style>
<g>
	<g>
		<path class="st0" d="M966.6,333.3c-12.6-0.7-25.2-1.8-37.8-3.4c-36.2-4.5-73.4-12.8-110.5-24.8c-51.7-16.6-106.1-39.5-166.3-70
			c-53.7-27.1-106.9-57.6-158.4-87.1C451,123.7,407,98.5,363.1,75.3C309.5,47.1,246.7,16.1,180.3,4.5C133.6-3.7,87.3,1.7,48.1,7.9
			l0-0.3c25.9-4.2,46.9-6.5,66-7.3c23.9-1,45.5,0.2,66.3,3.8c66.5,11.6,129.2,42.7,182.8,70.9c44,23.1,87.9,48.4,130.5,72.7
			c103,59,209.4,120,324.7,157.1c152.9,49.2,297.3,35.7,429.2-40.2c35.2-20.2,69.9-45.6,103.5-70.1c34.1-24.9,69.5-50.6,106-71.7
			c41.1-23.7,79.1-38.8,116.3-46c20.2-3.9,40.1-5.1,59.7-4.1c94.1,5,181,61.3,259.2,112c3.9,2.5,7.8,5.1,11.7,7.6l-0.2,0.3
			c-3.9-2.5-7.8-5-11.7-7.6c-94.4-61.2-201.5-130.7-318.7-107.9c-82.8,16.1-153.7,67.7-222.2,117.7c-33.6,24.5-68.4,49.8-103.6,70.1
			c-33.5,19.3-68.3,34.7-103.4,45.9c-34.6,11-70.5,18.2-106.6,21.4C1014.4,334.2,990.6,334.6,966.6,333.3z"/>
	</g>
	<g>
		<path class="st0" d="M948.1,337.1c-45.8-2.4-93.4-11.2-142.3-26.4c-51.9-16.2-106.6-38.7-167.2-68.6
			c-54-26.7-107.6-56.7-159.4-85.7c-7-3.9-14-7.9-21-11.8c-33-18.4-68.3-38-103.7-56.4c-53.2-27.6-115.3-58.1-180.2-70.7
			c-5.3-1-10.7-1.9-16.1-2.6C119,9.6,80.6,12.5,45,16.4l0-0.4c35.6-3.9,74-6.8,113.2-1.5c5.4,0.7,10.8,1.6,16.1,2.6
			c29,5.6,59.2,15,92.6,28.8C298,59,328.7,74.5,354.6,87.9c35.4,18.4,70.8,38,103.7,56.4c7,3.9,14,7.8,21,11.8
			C583,214.1,690.2,274.2,805.9,310.4c70,21.7,137.5,30.4,200.5,25.9c75.5-5.6,148-30.7,228.2-79c5.6-3.4,11.3-6.9,17.6-10.9
			c20.7-13.1,41.7-27.3,62-40.9c39.3-26.5,79.9-53.9,121.7-75.9c22.5-11.9,43.5-21.2,64.1-28.7c23.2-8.3,45.3-14,67.6-17.2
			c119.8-17.6,229.2,54.8,325.8,118.7c3.4,2.2,6.7,4.5,10.1,6.7l-0.2,0.3c-3.3-2.2-6.7-4.4-10.1-6.7
			c-96.5-63.8-205.8-136.2-325.5-118.6c-92.8,13.6-174.3,68.6-253.2,121.7c-20.3,13.7-41.3,27.9-62,41c-6.3,4-12,7.5-17.6,10.9
			c-80.3,48.3-152.9,73.5-228.4,79.1C987.4,338,967.9,338.2,948.1,337.1z"/>
	</g>
	<g>
		<path class="st0" d="M929.8,341.2c-43.3-2.3-89-10.6-136.6-25c-51.7-15.6-106.3-37.3-166.8-66.5c-53.9-26-107.5-55.3-159.2-83.6
			c-6.2-3.4-12.4-6.8-18.7-10.2c-38.1-20.8-70.2-38.1-102.8-54.8c-55.2-28.3-114.4-57-177.7-70.5c-5.2-1.1-10.5-2.1-15.8-2.9
			C114,21.6,75.2,23,41.9,24.8l0-0.4c33.4-1.8,72.2-3.2,110.6,2.8c5.3,0.8,10.6,1.8,15.8,2.9c28.4,6,58.2,15.7,91,29.4
			c30.4,12.7,59.7,27.3,86.7,41.2c32.6,16.7,64.7,34,102.8,54.8c6.2,3.4,12.4,6.8,18.7,10.2c103.6,56.7,210.7,115.3,326,150.1
			c72.6,21.9,141,29.8,203.2,23.5c86.8-8.8,159.5-48.2,225.1-89.4c5.1-3.2,10.5-6.7,17.6-11.2c6-3.9,12-7.8,18.1-11.7
			c95.6-61.7,194.4-125.5,304.3-136.5c28.9-2.9,59.1-1,89.7,5.7c27.4,6,55.4,15.6,85.4,29.5c55.5,25.6,107.5,60.6,157.7,94.5
			c2.8,1.9,5.5,3.7,8.2,5.6l-0.2,0.3c-2.7-1.8-5.5-3.7-8.2-5.6c-98.6-66.4-210.3-141.7-332.6-129.6
			c-109.9,10.9-208.6,74.7-304.2,136.4c-6,3.9-12.1,7.8-18.1,11.7c-7.1,4.6-12.6,8-17.6,11.2c-43,27-76.7,45.2-109.4,59
			c-39.3,16.6-77.2,26.6-115.8,30.5C975.1,341.9,952.8,342.4,929.8,341.2z"/>
	</g>
	<g>
		<path class="st0" d="M912.7,345.3c-41.4-2.2-85.6-10.1-131.9-23.6c-51.9-15.1-106.6-36.3-167.4-64.9c-54.2-25.4-108-54.2-160-82
			c-4.8-2.5-9.5-5.1-14.3-7.6c-32.2-17.2-66.7-35.5-101.9-53.3C282.3,86.3,223.6,58,162,43.6c-5.1-1.2-10.3-2.3-15.5-3.2
			c-37.6-6.9-74.9-7-107.8-7.1l0-0.4c33,0.1,70.3,0.3,107.9,7.1c5.2,1,10.4,2,15.5,3.2c61.6,14.4,120.3,42.6,175.2,70.4
			c35.2,17.8,69.6,36.1,101.9,53.3c4.8,2.5,9.5,5.1,14.3,7.6c104.1,55.6,211.8,113.1,327.3,146.8c75.2,21.9,144.4,29,205.9,21
			c86.7-11.2,155.5-56.3,222-99.9l3.1-2c4.8-3.1,9.7-6.4,14.6-9.6c62.6-40.9,111.7-68.5,159.3-89.5c60.7-26.7,116.3-41.1,170.1-44
			c29.6-1.6,60.5,1.6,91.8,9.4c28,7,56.6,17.6,87.3,32.4c56.7,27.3,109.9,63.8,161.3,99.1l6,4.1l-0.2,0.4l-6-4.1
			c-92.6-63.5-196.5-134.8-309.9-140.8c-10-0.5-20.1-0.5-30.2,0c-120,6.4-233.8,71-329.3,133.4c-4.9,3.2-9.8,6.4-14.6,9.6l-3.1,2
			c-37.7,24.7-71.8,46.6-107.2,63.9c-39.8,19.6-76.4,31-115,36C963.2,345.8,938.5,346.7,912.7,345.3z"/>
	</g>
	<g>
		<path class="st0" d="M895.8,349.6c-7.4-0.4-14.9-1-22.5-1.7c-33-3.3-68.4-10.2-105.1-20.6c-52.1-14.6-107.1-35.4-168.3-63.3
			c-54.5-24.9-108.7-53.1-161.1-80.4l-9.4-4.9c-33.9-17.6-67.1-34.9-101-51.7c-54.5-27.1-112.8-54.9-172.6-70.2
			c-4.9-1.3-10-2.4-15.1-3.5c-32.3-6.7-64.3-8.8-95.3-10.8c-3.3-0.2-6.6-0.4-9.8-0.6l0-0.5c3.3,0.2,6.5,0.4,9.8,0.6
			c31,2,63.1,4.1,95.4,10.8c5.1,1.1,10.2,2.2,15.2,3.5c59.8,15.2,118.1,43,172.7,70.2c33.9,16.9,67.1,34.1,101,51.7l9.4,4.9
			c104.9,54.6,213.3,111.1,329.3,143.7c77.6,21.8,147.8,28.1,208.6,18.6c76.4-11.9,132.1-50.4,196.5-94.9c7.3-5,14.8-10.2,22.3-15.4
			c6.8-4.6,12.4-8.4,17.8-12c54.9-36.4,109.8-65,163.3-84.9c59.7-22.2,118-33.6,173.2-34c30.3-0.2,61.9,4.2,93.9,13.2
			c28.7,8,57.8,19.6,89.2,35.4c58,29.1,112.5,67.2,165.2,104l3.4,2.4l-0.3,0.4l-3.4-2.4c-103-71.9-219.8-153.4-348-152.4
			c-105.6,0.8-218.7,40.8-336.3,118.8c-5.4,3.6-11,7.4-17.8,12c-7.6,5.2-15.1,10.4-22.3,15.4c-31.8,22-61.9,42.7-93.5,59.5
			c-35.4,18.8-68.2,30-103.2,35.5C951.6,349.8,924.4,351.1,895.8,349.6z"/>
	</g>
	<g>
		<path class="st0" d="M879.6,353.9c-5.8-0.3-11.6-0.7-17.5-1.3c-33.1-3-68.9-9.7-106.4-19.9c-52.4-14.2-107.9-34.5-169.6-61.9
			c-55-24.5-109.7-52.2-162.6-79l-3.7-1.9c-30.8-15.6-65.7-33.3-100.1-50.2c-56.6-27.7-112.1-53.9-170-70c-4.9-1.3-9.8-2.6-14.8-3.8
			c-27.1-6.4-54.1-9.7-80.1-12.9c-7.4-0.9-15-1.9-22.4-2.8l0.1-0.5c7.4,1,15,1.9,22.4,2.8c26.1,3.2,53,6.6,80.2,12.9
			c5,1.2,10,2.5,14.9,3.8c58,16,113.6,42.3,170.1,70c34.4,16.9,69.3,34.6,100.1,50.2l3.7,1.9c105.8,53.7,215.3,109.3,332,140.9
			c80,21.7,151.1,27.1,211.3,16.1c70.4-12.9,121.8-51.2,176.2-91.7c12.7-9.5,25.9-19.3,39.5-29c6.4-4.5,12.2-8.6,17.8-12.4
			c26.2-17.7,53.6-33.5,81.4-47.1c28.3-13.8,57.2-25.4,86-34.4c60.6-19,119.9-26.6,176.2-22.8c59.3,4.1,120.6,22.8,187.6,57.2
			c59.8,30.7,116.5,70,169.4,107.5l-0.3,0.4c-115.2-81.8-229.2-155.9-356.7-164.7c-2.2-0.2-4.4-0.3-6.6-0.4
			c-108.7-5.7-227.9,31.3-336.7,104.6c-5.6,3.8-11.5,7.9-17.8,12.4c-13.6,9.7-26.8,19.5-39.5,29c-27.9,20.8-54.2,40.4-82.6,56.6
			c-31.8,18.2-61.7,29.4-93.9,35.2C940.2,353.9,910.8,355.5,879.6,353.9z"/>
	</g>
	<g>
		<path class="st0" d="M863.8,358.3c-4.2-0.2-8.5-0.5-12.7-0.8c-33.1-2.7-69.4-9.1-107.8-19.1c-117.8-30.8-227.2-84.8-332.9-137
			l-7.4-3.6c-30-14.8-61.1-30.2-91.8-45c-58.6-28.3-111.7-53.1-167.5-69.8c-4.7-1.4-9.6-2.8-14.5-4.1c-22.2-5.8-44.4-9.8-65.8-13.7
			c-11.8-2.1-22.9-4.1-34-6.4l0.1-0.6c11.1,2.3,22.2,4.3,34,6.4c21.4,3.9,43.6,7.8,65.9,13.7c4.9,1.3,9.8,2.7,14.5,4.1
			c55.9,16.8,109,41.5,167.6,69.8c30.7,14.8,61.7,30.2,91.8,45l7.4,3.6C516.3,253,625.6,307,743.4,337.7
			c83.5,21.8,153.5,26.3,214,13.7c66.7-13.9,113.3-51.8,162.7-91.9c15.9-12.9,32.4-26.3,49.9-39.2c6.2-4.6,12.1-8.8,17.9-12.8
			c25.7-17.6,53.6-33,82.9-45.8c28.1-12.3,57.9-22.3,88.4-29.7c29.5-7.2,59.9-12,90.4-14.4c29.8-2.3,59.7-2.3,88.9,0.1
			c31.6,2.6,64.5,9.6,97.7,20.8c29.8,10.1,60.1,23.5,92.6,41c61.6,33.2,120.2,75.4,171.9,112.7l-0.3,0.5
			c-106.3-76.6-226.7-163.4-361.9-174.5c-124.4-10.2-252.1,22.4-350.2,89.6c-5.8,4-11.6,8.1-17.9,12.8c-17.6,12.9-34,26.3-49.9,39.2
			c-25.2,20.5-49,39.8-75.1,56c-29.4,18.2-57.3,29.6-87.8,36C928.9,357.9,897.4,360,863.8,358.3z"/>
	</g>
	<g>
		<path class="st0" d="M848.5,362.7c-35.9-1.9-75-8.2-117.7-18.9c-52-13.1-107.1-31.8-168.2-57.2c-53.5-22.3-104.9-46.7-161.8-74
			c-7.7-3.7-15.5-7.4-23.2-11.1c-24.6-11.8-50-24-75-35.9c-50.3-23.9-107.3-51-165-69.6c-4.6-1.5-9.4-3-14.2-4.4
			c-17.7-5.2-35.4-9.3-52.6-13.3c-15.6-3.6-30.3-7.1-44.6-11.1l0.2-0.6c14.3,4.1,29,7.5,44.6,11.1c17.2,4,34.9,8.1,52.6,13.3
			c4.8,1.4,9.6,2.9,14.2,4.4c57.7,18.7,114.7,45.8,165.1,69.7c25.1,11.9,50.5,24.1,75,35.9c7.7,3.7,15.5,7.4,23.2,11.1
			c98.9,47.5,211,101.3,329.9,131.2c85.9,21.5,156.7,25.2,216.7,11.2c64.4-15,107.4-53.3,153-93.8c17.8-15.8,36.2-32.2,56.5-47.7
			c6.2-4.8,12.1-9.1,18-13.2c50-34.7,108.9-58.5,175.3-70.7c29.8-5.5,60.9-8.6,92.6-9.2c29.7-0.6,59.9,1.1,89.8,4.8
			c61,7.7,124.1,30,192.9,68.1c59.2,32.8,114.1,72.1,174.6,116.3l-0.4,0.5c-101.6-74.3-228.1-166.8-367.2-184.3
			c-15.1-1.9-30.2-3.3-45.2-4c-117.8-6.2-229.5,21.8-312,79c-5.9,4.1-11.8,8.4-17.9,13.1c-20.2,15.5-38.6,31.8-56.4,47.7
			c-45.6,40.6-88.7,78.9-153.3,94C917.6,362.1,884.6,364.6,848.5,362.7z"/>
	</g>
	<g>
		<path class="st0" d="M832.7,367.2c-1.3-0.1-2.6-0.1-3.9-0.2c-33.6-2.1-69.8-7.8-110.6-17.7c-51.6-12.4-106.1-30.3-166.6-54.5
			c-55-22-109.4-47.1-160.5-70.9c-16.9-7.9-34-15.9-50.6-23.7c-15.3-7.2-31.1-14.6-46.7-21.9l-2.6-1.2
			c-52-24.3-105.8-49.4-159.9-68.3c-4.5-1.6-9.2-3.2-13.9-4.7c-13.6-4.4-27.3-8.3-40.6-12C57.9,86.9,40,81.8,23,75.5l0.2-0.6
			c17,6.3,34.9,11.3,53.9,16.7c13.3,3.8,27,7.6,40.6,12c4.7,1.5,9.4,3.1,13.9,4.7c54.1,18.9,107.9,44,159.9,68.3l2.6,1.2
			c15.6,7.3,31.4,14.7,46.7,21.9c16.6,7.8,33.7,15.8,50.6,23.7c113.1,52.7,215.7,98.6,326.9,125.4c88.2,21.2,159.9,24.1,219.4,8.8
			c62.9-16.2,103.1-55.4,145.7-96.9c18.9-18.4,38.5-37.5,60.6-55.1c6-4.8,12.1-9.4,18-13.5c49.5-34.8,109.8-57,179.3-65.9
			c30.1-3.9,62-5.2,94.8-4c29.6,1.1,60.1,4.3,90.6,9.4c62.1,10.5,126,34.9,195.5,74.4c61.5,35,119,76.7,177.2,119.9l-0.4,0.5
			c-125.3-92.9-239.8-171.7-372.5-194.2c-83.8-14.2-242.6-25.3-364.2,60.4c-5.9,4.2-12,8.7-18,13.5c-22.1,17.5-41.7,36.6-60.6,55
			c-42.7,41.6-82.9,80.8-146,97C906.6,366.2,871.2,369.2,832.7,367.2z"/>
	</g>
	<g>
		<path class="st0" d="M817.5,371.7c-33.6-1.8-70.1-7.3-111.8-16.9c-112.5-25.9-217.5-71.4-324.1-119.6c-33.2-15-67.1-30.6-96.4-44
			c-4.2-1.9-8.5-3.9-12.7-5.8c-48-22.1-97.7-44.9-147.2-63.4c-4.4-1.7-9-3.3-13.6-5c-10-3.5-20.1-6.9-29.9-10.1
			c-22-7.2-42.7-14.1-62-22.9l0.3-0.6C39.3,92.1,60,99,82,106.2c9.8,3.2,19.9,6.6,29.9,10.1c4.6,1.6,9.2,3.3,13.6,5
			c49.5,18.6,99.2,41.4,147.3,63.5c4.2,1.9,8.5,3.9,12.7,5.8c29.3,13.4,63.2,29,96.4,44c106.6,48.2,211.5,93.6,324,119.6
			c91.7,21.1,162.3,23.2,222.1,6.3c62-17.4,99.9-57.9,140-100.7c19.5-20.8,39.7-42.3,63.2-61.7c6-5,12.1-9.7,18.1-13.9
			c111.4-79.5,263.7-68.8,371.8-45.9c63.2,13.4,128,39.8,198.1,80.7c64.2,37.4,126.5,83.3,179.9,123.5l-0.4,0.6
			c-121-90.9-240.9-175-377.7-204c-35.1-7.5-74.9-13.6-116.4-15.8c-86.1-4.5-179.8,8-254.8,61.6c-6,4.3-12.1,8.9-18.1,13.9
			c-23.5,19.3-43.7,40.8-63.1,61.6c-40.2,42.9-78.2,83.4-140.4,100.9c-17,4.8-35.3,8.1-54.4,9.8c-17.6,1.6-36.5,1.8-56.1,0.8
			C817.6,371.7,817.5,371.7,817.5,371.7z"/>
	</g>
	<g>
		<path class="st0" d="M802.2,376.3c-32.5-1.7-68.2-6.9-109-15.9c-50.9-11.2-104.3-27.2-163.3-49c-55.4-20.4-108.6-43.2-157.9-64.8
			c-30.5-13.4-61.7-27.2-95.5-42.4c-9.7-4.4-19.7-8.9-29.3-13.2c-41.9-19-85.3-38.6-128.1-55.9c-4.3-1.7-8.8-3.5-13.3-5.3
			c-6.8-2.7-13.8-5.3-20.5-7.8c-24.6-9.2-47.8-17.9-68.7-29.6l0.4-0.7c20.9,11.7,44.1,20.4,68.6,29.5c6.7,2.5,13.7,5.1,20.5,7.8
			c4.5,1.8,9,3.5,13.3,5.3c42.8,17.2,86.2,36.9,128.1,55.9c9.6,4.3,19.5,8.8,29.3,13.2c33.7,15.2,65,29.1,95.5,42.4
			c100,43.8,207.1,88.6,321,113.7c59.2,13,146.8,27.6,224.8,3.9c61.5-18.7,97.4-60.6,135.4-105c19.7-23,40.2-46.9,64.7-67.7
			c6-5.1,12.1-9.9,18.2-14.3c86.7-62.7,214.2-73.2,378.8-31.3c64.3,16.4,130,44.9,200.7,87c63.8,38.1,125.5,83.5,182.6,127l-0.5,0.6
			c-116.2-88.4-241.4-177.8-383-213.9c-164.4-41.9-291.7-31.4-378.2,31.1c-6,4.4-12.1,9.2-18.1,14.3c-24.5,20.8-44.9,44.6-64.6,67.7
			c-19.2,22.4-37.4,43.6-58.9,62.1c-24.4,20.9-48.8,34.6-76.9,43.2c-33.2,10.1-69.7,14.1-111.9,12.3
			C805.1,376.4,803.7,376.3,802.2,376.3z"/>
	</g>
	<g>
		<path class="st0" d="M786.7,380.8c-31.5-1.7-65.5-6.5-106.1-15c-50.6-10.6-103.5-25.8-161.7-46.3
			c-57.2-20.2-113.7-43.6-156.6-61.7c-32-13.6-63.8-27.3-94.6-40.9c-20.7-9.2-41.8-18.6-62.2-27.8c-30.4-13.7-61.9-27.8-92.7-41.1
			c-4.1-1.8-8.5-3.7-13-5.5c-4.1-1.7-8.3-3.5-12.3-5.2c-26.8-11.2-52.1-21.7-74.2-36.5l0.4-0.7C36,114.9,61.3,125.5,88,136.6
			c4,1.7,8.2,3.4,12.3,5.2c4.5,1.9,8.8,3.8,13,5.5c30.8,13.3,62.3,27.4,92.7,41.1c20.4,9.2,41.5,18.7,62.2,27.8
			c30.7,13.6,62.5,27.3,94.5,40.9c115.7,49,214,86.1,318.1,107.9c60.6,12.7,150.1,26.7,227.5,1.4c61.2-20,95.4-63.6,131.6-109.7
			c19.7-25.2,40.1-51.2,65.4-73.4c6-5.3,12.1-10.2,18.2-14.7c26.1-19.1,56.6-33.1,90.7-41.5c30.2-7.5,64.1-10.8,100.5-9.9
			c56.8,1.4,120.5,12.8,194.6,34.8c65.5,19.4,132,50,203.3,93.4c67,40.8,131.2,88.9,185.2,130.5l-0.5,0.6
			c-110.8-85.4-241.3-180.1-388.3-223.7c-173.6-51.5-299.6-46.1-385.2,16.5c-6.1,4.5-12.2,9.4-18.2,14.7
			c-25.3,22.2-45.6,48.2-65.3,73.3c-18.2,23.3-35.5,45.3-56.3,64.5c-11.2,10.4-22.4,18.9-34.1,26.2c-13.2,8.1-26.7,14.4-41.5,19.3
			c-33.3,10.9-70.3,15.5-113.2,14C792.5,381.1,789.6,381,786.7,380.8z"/>
	</g>
	<g>
		<path class="st0" d="M771.4,385.4c-30.4-1.6-63.6-6.1-103.2-14c-50.3-10-102.6-24.3-160-43.6c-45.7-15.3-93.6-33.4-155.3-58.6
			c-33.3-13.6-63.9-26.5-93.6-39.3c-50.2-21.7-100.7-44.9-152.3-68.8c-4.2-2-8.5-3.9-12.7-5.8c-1.8-0.8-3.5-1.6-5.3-2.4
			c-27.3-12.5-55.6-25.5-78.6-43.6l0.5-0.7c22.9,18.1,51.2,31,78.5,43.5c1.8,0.8,3.5,1.6,5.3,2.4c4.2,1.9,8.4,3.9,12.7,5.8
			c51.6,23.8,102.1,47,152.3,68.8c29.7,12.9,60.3,25.7,93.6,39.3c97.4,39.8,203.1,79.7,315.2,102.1c67.2,13.4,154.1,25.4,230.2-1
			c61.1-21.5,93.7-66.8,128.2-114.8c19.5-27.2,39.7-55.3,65.6-78.8c6-5.4,12.1-10.5,18.3-15.1c26.3-19.5,57.3-33.1,92.3-40.6
			c30.8-6.6,65.4-8.6,102.9-5.9c31.7,2.2,66.6,7.9,103.6,16.8c28.9,7,59.7,16,94.2,27.7c66.8,22.6,134.1,55.2,205.9,99.8
			c70.6,43.9,137.5,94.6,188,133.9l-0.5,0.7c-118.2-92.2-247.7-184.3-393.6-233.6c-59.9-20.3-133.6-41.4-206.3-45.2
			c-66.7-3.5-132.5,7.5-185.9,47.1c-6.2,4.6-12.3,9.6-18.2,15c-25.8,23.5-46,51.5-65.5,78.7c-16.6,23.1-33.8,47-54,67.2
			c-10.9,10.8-21.8,19.8-33.4,27.5c-13,8.6-26.5,15.3-41.2,20.4c-33.5,11.6-71,16.7-114.6,15.6C780,385.8,775.7,385.6,771.4,385.4z"
			/>
	</g>
	<g>
		<path class="st0" d="M756.9,390c-38.5-2-75.5-8.3-101.2-13.2c-50.1-9.6-101.9-22.9-158.4-40.9c-46.4-14.8-95.3-32.4-154-55.4
			c-33.7-13.2-64-25.6-92.7-37.8c-50.8-21.6-101.3-44.6-149.8-68.6c-4.2-2.1-8.4-4.1-12.4-6.1C60,153.9,30.6,139.2,7.1,117.7
			l0.6-0.7c23.4,21.5,52.7,36.1,81,50.2c4,2,8.2,4.1,12.4,6.1c48.6,23.9,99,47,149.8,68.6c28.7,12.2,59.1,24.5,92.7,37.8
			c84.4,33.2,196.3,74.2,312.2,96.3c73.3,13.8,158.3,24.1,232.9-3.5c61.3-22.8,92.4-70,125.4-120c19.2-29.1,39.1-59.3,65.4-84
			c5.9-5.6,12.1-10.8,18.4-15.5c26.4-19.8,58-33.2,93.8-39.7c31.3-5.7,66.8-6.4,105.3-1.9c32.7,3.8,67.3,11,105.8,22
			c28.9,8.3,59.2,18.5,95.1,32.2c68.2,25.9,136.3,60.6,208.4,106.2c57,36.1,117.6,79.7,190.7,137.4l-0.5,0.7
			c-111.4-87.8-245.9-185.4-398.8-243.4c-50.5-19.1-126.2-45.6-200.7-54.2c-82.4-9.5-149.2,4.5-198.5,41.5
			c-6.2,4.7-12.4,9.8-18.3,15.4c-26.3,24.6-46.1,54.7-65.3,83.8c-15.8,24-32.2,48.9-51.9,70c-10.6,11.4-21.3,20.8-32.8,28.8
			c-12.8,9-26.3,16.1-41.1,21.6c-33.6,12.4-71.5,18.1-115.9,17.2C767.7,390.5,762.3,390.3,756.9,390z"/>
	</g>
	<g>
		<path class="st0" d="M741.3,394.7c-33.6-1.8-66.9-6.7-98.2-12.3c-49.8-8.9-101.1-21.4-156.8-38.1c-46.4-14-96.3-31.1-152.7-52.4
			C229.5,252.5,152,218.2,82.6,180.8c-29.1-15.7-57-31.7-78.6-54.7l0.7-0.6C26.2,148.4,54,164.3,83,179.9
			c69.4,37.4,146.9,71.7,251.1,111c122.2,46.2,217.6,74.1,309.3,90.5c74.9,13.4,161.4,23.2,235.6-5.9
			c61.6-24.1,92.7-75.7,122.8-125.5c22.8-37.8,46.5-76.9,83.2-104.8c26.6-20.2,58.7-33.3,95.4-38.8c31.9-4.8,68.1-4.1,107.7,2.1
			c73.4,11.6,147.6,40.2,204,63.9c69.7,29.3,138.7,66.1,210.9,112.6c59.8,38.6,121.3,83.3,193.4,140.8l-0.6,0.7
			c-103.2-82.3-242.5-185.4-404.1-253.3c-132.5-55.6-298.4-109-406.2-27.3c-36.7,27.8-60.2,66.8-83,104.5c-15.1,25-30.8,50.9-50,73
			c-10.4,11.9-20.9,21.8-32.3,30.2c-12.7,9.5-26.2,16.9-41,22.7C835.9,393.4,788.3,397.2,741.3,394.7z"/>
	</g>
</g>
</svg>
