<?xml version="1.0" encoding="utf-8"?>
<!-- Generator: Adobe Illustrator 23.1.1, SVG Export Plug-In . SVG Version: 6.00 Build 0)  -->
<svg version="1.0" id="Layer_1" xmlns="http://www.w3.org/2000/svg" xmlns:xlink="http://www.w3.org/1999/xlink" x="0px" y="0px"
	 viewBox="0 0 812 582" style="enable-background:new 0 0 812 582;" xml:space="preserve">
<style type="text/css">
	.st0{fill:none;stroke:#2EAFDA;stroke-miterlimit:10;stroke-dasharray:3.193;}
</style>
<path class="st0" d="M478.07,0.5c0,0-179.07,3-396.07,115"/>
<path class="st0" d="M729,115.5C593,9.5,478.07,1.13,478.07,1.13S357,16.5,299,115.5"/>
<path class="st0" d="M478.07,1.5c0,0,28.93,44,34.93,114"/>
<path class="st0" d="M478.07,0.5c0,0-107.07,108-72.07,416"/>
<path class="st0" d="M478.07,0.5c0,0,184.93,36,136.93,281c-18.42,94.01,6,135,6,135"/>
<path class="st0" d="M478,0.5c0,0-324.03,15-284,279c14.36,94.72-1.97,137-1.97,137"/>
<circle class="st0" cx="84" cy="197.5" r="82"/>
<circle class="st0" cx="299" cy="197.5" r="82"/>
<circle class="st0" cx="511" cy="197.5" r="82"/>
<circle class="st0" cx="726" cy="197.5" r="82"/>
<circle class="st0" cx="618" cy="498.5" r="82"/>
<circle class="st0" cx="403" cy="498.5" r="82"/>
<circle class="st0" cx="190" cy="498.5" r="82"/>
</svg>
