<?xml version="1.0" encoding="utf-8"?>
<!-- Generator: Adobe Illustrator 23.1.1, SVG Export Plug-In . SVG Version: 6.00 Build 0)  -->
<svg version="1.0" id="Layer_1" xmlns="http://www.w3.org/2000/svg" xmlns:xlink="http://www.w3.org/1999/xlink" x="0px" y="0px"
	 viewBox="0 0 382 332" style="enable-background:new 0 0 382 332;" xml:space="preserve">
<style type="text/css">
	.st0{fill:#004C65;}
	.st1{fill:#E85627;}
	.st2{fill:#2DB0DB;}
	.st3{fill:none;stroke:#2DB0DB;stroke-width:2.8854;stroke-miterlimit:10;stroke-dasharray:6.0126,5.7709;}
	.st4{fill:none;stroke:#2DB0DB;stroke-width:2.8854;stroke-miterlimit:10;stroke-dasharray:6.0126,5.0105;}
	.st5{fill:#F9D302;}
	.st6{fill:none;stroke:#2DB0DB;stroke-width:3.0063;stroke-miterlimit:10;}
	.st7{fill:none;stroke:#2DB0DB;stroke-width:4.0084;stroke-miterlimit:10;}
</style>
<g>
	<g>
		
			<rect x="140.02" y="121.65" transform="matrix(0.4948 -0.869 0.869 0.4948 -39.5156 187.4893)" class="st0" width="2.96" height="12.16"/>
	</g>
	<g>
		<path class="st0" d="M65.16,257.81v-2.96l-20.34-0.02v-82.65c0-59.56,35.3-83.43,57.24-92.5l10.7,18.49l2.56-1.48l-11.98-20.71
			l-1.19,0.47c-22.51,8.97-60.29,33.34-60.29,95.74v85.61L65.16,257.81z"/>
	</g>
	<g>
		<path class="st0" d="M63.68,257.66v-85.63c0-51.78,31.61-69.99,50.86-76.26c1.71-2.79,10.35-15.8,24.05-17.76l1.66-0.24
			l0.39,24.49l21,14.25l2.28,13.27l24.7,20.19c2.48,2.03,2.93,5.63,1.04,8.21l-7.78,10.57c-1.65,2.24-4.59,3.05-7.15,1.98
			l-14.25-5.95c-2.26-0.94-4.77-1.13-7.27-0.55c-6,1.4-21.16,3.87-32.46-3.34c-1.86-1.19-3.53-2.58-5.02-4.18v17.74l48.69,51.43
			l0.41,0.43v31.5L63.68,257.66z M113.18,176.06l-0.41-0.43v-22.77c-2.05-3.24-3.54-7.05-4.45-11.43l2.9-0.6
			c1.66,8,5.41,13.91,11.12,17.56c10.35,6.61,24.56,4.27,30.19,2.95c3.1-0.72,6.24-0.48,9.08,0.7l14.25,5.95
			c1.3,0.54,2.79,0.13,3.62-1l7.78-10.57c0.96-1.31,0.73-3.14-0.52-4.16l-25.56-20.89l-2.25-13.12l-21.23-14.41l-0.36-22.61
			c-12.62,2.83-20.46,16.35-20.54,16.49l-0.29,0.5l-0.55,0.18c-18.43,5.87-49.34,23.23-49.34,73.62v82.67l95.23,0.15v-27.35
			L113.18,176.06z"/>
	</g>
	<g>
		<polygon class="st0" points="63.68,276.9 145.74,276.9 145.74,260.94 142.78,260.94 142.78,273.94 66.64,273.94 66.64,261.47 
			63.68,261.47 		"/>
	</g>
	<g>
		<polygon class="st0" points="172.78,327.24 175.75,327.24 175.75,309.49 156.65,289.72 156.65,273.94 144.26,273.94 144.26,276.9 
			153.69,276.9 153.69,290.92 172.78,310.69 		"/>
	</g>
	<g>
		<polygon class="st0" points="52.77,290.32 55.73,290.32 55.73,276.9 65.16,276.9 65.16,273.94 52.77,273.94 		"/>
	</g>
	<g>
		<rect x="35.88" y="309.4" class="st0" width="138.44" height="2.96"/>
	</g>
</g>
<circle class="st1" cx="24.1" cy="310.32" r="5.91"/>
<g>
	<g>
		<g>
			<rect x="279.08" y="310.16" class="st2" width="47.19" height="2.69"/>
		</g>
		<g>
			<rect x="310.31" y="230.02" class="st2" width="26.42" height="2.69"/>
		</g>
		<g>
			<polygon class="st2" points="276.88,325.2 362.43,325.2 362.43,322.51 279.56,322.51 279.56,312.13 292.78,298.68 292.78,289.34 
				356.15,289.34 356.15,298.68 369.55,312.24 371.47,310.35 358.84,297.58 358.84,286.65 290.09,286.65 290.09,297.58 
				276.88,311.03 			"/>
		</g>
		<g>
			<path class="st2" d="M296.69,178.52c0-15.31,12.46-27.77,27.77-27.77s27.77,12.46,27.77,27.77s-12.46,27.77-27.77,27.77
				C309.15,206.29,296.69,193.83,296.69,178.52z M299.38,178.52c0,13.83,11.25,25.08,25.08,25.08s25.08-11.25,25.08-25.08
				s-11.25-25.08-25.08-25.08S299.38,164.69,299.38,178.52z"/>
		</g>
		<g>
			<path class="st2" d="M291.98,211.15h64.97v12.13h-64.97V211.15z M354.26,213.84h-59.6v6.75h59.6V213.84z"/>
		</g>
		<g>
			<path class="st2" d="M350.28,288.63l2.43-1.14c-14.12-30.01-13.89-66.37-13.89-66.73l-2.69-0.03
				C336.13,221.1,335.89,258.05,350.28,288.63z"/>
		</g>
		<g>
			<path class="st2" d="M297.77,288.63c14.39-30.58,14.15-67.54,14.14-67.91l-2.69,0.03c0,0.36,0.24,36.72-13.89,66.73
				L297.77,288.63z"/>
		</g>
		<g>
			<path class="st2" d="M300.99,213.44c5.09-3.4,9.39-8.49,11.12-10.96l-2.2-1.55c-1.52,2.16-5.65,7.08-10.42,10.27L300.99,213.44z"
				/>
		</g>
		<g>
			<path class="st2" d="M348.04,213.67l1.49-2.24c-5.03-3.37-9.17-8.63-10.71-10.74l-2.17,1.59
				C338.67,205.05,342.84,210.2,348.04,213.67z"/>
		</g>
	</g>
	<circle class="st2" cx="374.64" cy="322.92" r="6.11"/>
</g>
<g>
	<path class="st2" d="M165.63,30.6c-6.87,0-12.47-5.59-12.47-12.46s5.59-12.46,12.47-12.46c6.87,0,12.46,5.59,12.46,12.46
		C178.09,25,172.5,30.6,165.63,30.6z M165.63,8.96c-5.06,0-9.17,4.11-9.17,9.17s4.12,9.17,9.17,9.17c5.06,0,9.17-4.11,9.17-9.17
		S170.69,8.96,165.63,8.96z"/>
	<path class="st2" d="M165.63,23.76c-3.11,0-5.64-2.53-5.64-5.63c0-3.11,2.53-5.63,5.64-5.63s5.63,2.53,5.63,5.63
		C171.26,21.24,168.74,23.76,165.63,23.76z M165.63,15.79c-1.29,0-2.35,1.05-2.35,2.34s1.05,2.34,2.35,2.34
		c1.29,0,2.34-1.05,2.34-2.34C167.97,16.84,166.92,15.79,165.63,15.79z"/>
	<g>
		<rect x="163.98" y="2.97" class="st2" width="3.29" height="4.34"/>
		
			<rect x="157.49" y="4.72" transform="matrix(0.8661 -0.4999 0.4999 0.8661 17.8661 80.4751)" class="st2" width="3.29" height="4.34"/>
		
			<rect x="152.74" y="9.46" transform="matrix(0.4997 -0.8662 0.8662 0.4997 67.164 139.5421)" class="st2" width="3.29" height="4.34"/>
		<rect x="150.47" y="16.49" class="st2" width="4.34" height="3.29"/>
		
			<rect x="152.2" y="22.98" transform="matrix(0.8657 -0.5005 0.5005 0.8657 8.4026 80.5726)" class="st2" width="4.34" height="3.29"/>
		<rect x="156.96" y="27.73" transform="matrix(0.5 -0.866 0.866 0.5 54.1247 152.4995)" class="st2" width="4.34" height="3.29"/>
		<rect x="163.98" y="28.95" class="st2" width="3.29" height="4.34"/>
		
			<rect x="170.48" y="27.22" transform="matrix(0.8657 -0.5006 0.5006 0.8657 8.408 90.1126)" class="st2" width="3.29" height="4.34"/>
		
			<rect x="175.23" y="22.45" transform="matrix(0.5001 -0.866 0.866 0.5001 67.1049 165.4791)" class="st2" width="3.29" height="4.34"/>
		<rect x="176.45" y="16.49" class="st2" width="4.34" height="3.29"/>
		
			<rect x="174.73" y="9.97" transform="matrix(0.8662 -0.4998 0.4998 0.8662 17.8692 89.963)" class="st2" width="4.34" height="3.29"/>
		
			<rect x="169.94" y="5.24" transform="matrix(0.5005 -0.8657 0.8657 0.5005 80.0049 152.442)" class="st2" width="4.34" height="3.29"/>
	</g>
</g>
<path class="st3" d="M209.26,101.03c3.8,10.61,5.86,22.05,5.86,33.96c0,34.63-17.45,65.18-44.05,83.33"/>
<path class="st4" d="M30.95,191.76C19.92,175.59,13.47,156.05,13.47,135c0-55.69,45.14-100.83,100.83-100.83
	c17.55,0,34.05,4.48,48.42,12.37"/>
<g>
	<path class="st0" d="M192.73,97.82h-6.88l-1.26-6.26c-0.91-0.19-1.82-0.43-2.72-0.73l-4.22,4.8l-5.96-3.44l2.05-6.05
		c-0.7-0.62-1.37-1.28-1.99-1.98l-6.05,2.05l-3.44-5.96l4.8-4.22c-0.3-0.9-0.54-1.81-0.73-2.71l-6.26-1.26v-6.88l6.26-1.25
		c0.19-0.91,0.43-1.83,0.73-2.73l-4.8-4.21l3.44-5.97l6.05,2.05c0.62-0.7,1.28-1.36,1.99-1.99l-2.05-6.06l5.96-3.44l4.22,4.8
		c0.89-0.3,1.8-0.54,2.71-0.73l1.25-6.26h6.89l1.25,6.26c0.92,0.19,1.82,0.43,2.71,0.73l4.22-4.79l5.96,3.43l-2.05,6.06
		c0.7,0.62,1.36,1.29,1.98,1.98l6.07-2.05l3.42,5.97l-4.79,4.21c0.3,0.9,0.54,1.8,0.73,2.72l6.26,1.25v6.88l-6.26,1.26
		c-0.19,0.91-0.43,1.81-0.73,2.71l4.79,4.22l-3.42,5.96l-6.07-2.05c-0.62,0.7-1.28,1.36-1.98,1.98l2.05,6.05l-5.96,3.44l-4.22-4.79
		c-0.9,0.3-1.81,0.54-2.72,0.73L192.73,97.82z M188.54,94.53h1.48l1.17-5.85l1.14-0.17c1.43-0.21,2.86-0.6,4.26-1.14l1.07-0.42
		l3.94,4.47l1.29-0.74l-1.91-5.65l0.9-0.72c1.15-0.92,2.19-1.96,3.11-3.11l0.72-0.9l5.66,1.91l0.74-1.28l-4.47-3.94l0.41-1.07
		c0.54-1.38,0.92-2.81,1.14-4.25l0.17-1.14l5.84-1.18v-1.49l-5.84-1.17l-0.17-1.14c-0.22-1.45-0.61-2.88-1.14-4.27l-0.42-1.07
		l4.47-3.93L211.36,55l-5.65,1.91l-0.72-0.9c-0.92-1.15-1.97-2.19-3.12-3.12l-0.9-0.72l1.91-5.65l-1.29-0.74l-3.94,4.47l-1.07-0.41
		c-1.38-0.53-2.81-0.92-4.26-1.14l-1.14-0.17l-1.16-5.84h-1.49l-1.17,5.84l-1.14,0.17c-1.44,0.22-2.87,0.61-4.26,1.14l-1.07,0.42
		l-3.94-4.47l-1.28,0.74l1.91,5.65l-0.9,0.72c-1.15,0.92-2.2,1.97-3.11,3.11l-0.72,0.9L167.2,55l-0.74,1.29l4.48,3.92l-0.42,1.07
		c-0.55,1.4-0.93,2.84-1.15,4.27l-0.17,1.14l-5.84,1.16v1.49l5.84,1.18l0.17,1.14c0.21,1.42,0.6,2.85,1.14,4.25l0.42,1.07
		l-4.48,3.93l0.74,1.28l5.65-1.91l0.72,0.9c0.91,1.15,1.96,2.19,3.11,3.11l0.9,0.72l-1.91,5.66l1.28,0.74l3.93-4.48l1.07,0.42
		c1.4,0.54,2.84,0.93,4.26,1.14l1.14,0.17L188.54,94.53z"/>
	<path class="st5" d="M189.29,83.58c-8.29,0-14.98-6.69-14.98-14.97s6.68-14.97,14.98-14.97c8.26,0,14.97,6.69,14.97,14.97
		S197.55,83.58,189.29,83.58z"/>
	<path class="st0" d="M189.29,77.06c-4.66,0-8.45-3.79-8.45-8.45s3.79-8.45,8.45-8.45s8.45,3.79,8.45,8.45
		C197.74,73.27,193.95,77.06,189.29,77.06z M189.29,63.45c-2.85,0-5.16,2.31-5.16,5.16c0,2.84,2.32,5.16,5.16,5.16
		s5.16-2.31,5.16-5.16C194.45,65.77,192.13,63.45,189.29,63.45z"/>
</g>
<circle class="st6" cx="7.76" cy="29.53" r="5.01"/>
<circle class="st7" cx="25.8" cy="47.57" r="7.52"/>
</svg>
