<?xml version="1.0" encoding="utf-8"?>
<!-- Generator: Adobe Illustrator 23.1.1, SVG Export Plug-In . SVG Version: 6.00 Build 0)  -->
<svg version="1.1" xmlns="http://www.w3.org/2000/svg" xmlns:xlink="http://www.w3.org/1999/xlink" x="0px" y="0px"
	 viewBox="0 0 603 270.9" style="enable-background:new 0 0 603 270.9;" xml:space="preserve">
<style type="text/css">
	.st0{fill:#004C65;}
	.st1{fill:#F9D302;}
	.st2{fill:#E85627;}
	.st3{fill:none;stroke:#E85627;stroke-width:0.6756;stroke-miterlimit:10;}
	.st4{fill:none;stroke:#004C65;stroke-width:0.6756;stroke-miterlimit:10;}
	.st5{fill:none;stroke:#F9D302;stroke-width:0.6756;stroke-miterlimit:10;}
</style>
<g id="Isolation_Mode">
	<g>
		<path class="st0" d="M390.4,175.7c0-3.1-2.5-5.7-5.7-5.7c-3.1,0-5.7,2.5-5.7,5.7c0,3.1,2.5,5.7,5.7,5.7
			C387.8,181.4,390.4,178.9,390.4,175.7z"/>
		<path class="st0" d="M296,83.1c0-2.1-1.7-3.8-3.8-3.8c-2.1,0-3.8,1.7-3.8,3.8c0,2.1,1.7,3.8,3.8,3.8C294.3,86.9,296,85.2,296,83.1
			z"/>
	</g>
	<g>
		<path class="st1" d="M603,4.1c0-2.3-1.9-4.1-4.1-4.1c-2.3,0-4.1,1.9-4.1,4.1s1.9,4.1,4.1,4.1C601.1,8.3,603,6.4,603,4.1z"/>
		<path class="st1" d="M184.7,75.4c0-3.2-2.6-5.7-5.7-5.7c-3.2,0-5.7,2.6-5.7,5.7c0,3.2,2.6,5.7,5.7,5.7
			C182.1,81.1,184.7,78.5,184.7,75.4z"/>
	</g>
	<g>
		<path class="st2" d="M171,266.8c0-2.3-1.9-4.1-4.1-4.1c-2.3,0-4.1,1.9-4.1,4.1c0,2.3,1.9,4.1,4.1,4.1
			C169.1,270.9,171,269,171,266.8z"/>
		<circle class="st2" cx="468.3" cy="104.4" r="6"/>
	</g>
</g>
<g id="Layer_2">
	<path class="st3" d="M0,149.7l115.6,35.1c5.9,1.8,10.9,5.9,13.8,11.4l28.6,54.2c3.3,6.3,12.4,5.9,15.2-0.6l42.3-97
		c2.6-6,7.6-10.6,13.8-12.7l146.9-50.1c2.7-0.9,5.5-1.3,8.4-1.2L466,92"/>
	<path class="st4" d="M0,179.4l117.3-49.1c1.5-0.6,3.1-1.1,4.7-1.4l160.3-29.8c6.3-1.2,12.9,0.3,18.1,4.2l82.3,61"/>
	<path class="st5" d="M599,14.5L469,52.8c-1.9,0.6-3.8,1.4-5.5,2.4L402,92.7c-1.7,1-3.5,1.8-5.4,2.4l-87,26.1
		c-4.3,1.3-8.8,1.3-13,0.1l-101.3-29c-9.3-2.7-19.2,0.7-25,8.5L137,145.4c-4.4,5.9-11.2,9.3-18.6,9.4L0,155.1"/>
</g>
</svg>
