<?xml version="1.0" encoding="utf-8"?>
<!-- Generator: Adobe Illustrator 23.1.1, SVG Export Plug-In . SVG Version: 6.00 Build 0)  -->
<svg version="1.0" id="Layer_1" xmlns="http://www.w3.org/2000/svg" xmlns:xlink="http://www.w3.org/1999/xlink" x="0px" y="0px"
	 viewBox="0 0 98 84" style="enable-background:new 0 0 98 84;" xml:space="preserve">
<style type="text/css">
	.st0{fill:#E75427;}
</style>
<g>
	<g>
		<path class="st0" d="M68.68,32.22c0.48,2.35,2.56,4.12,5.05,4.12c2.84,0,5.15-2.31,5.15-5.15s-2.31-5.15-5.15-5.15
			c-2.49,0-4.57,1.77-5.05,4.12H50.03v-4.31h3.09c0.27,0,0.54-0.11,0.73-0.3l7.94-7.94h2.77c0.48,2.35,2.56,4.12,5.05,4.12
			c2.84,0,5.15-2.31,5.15-5.15c0-2.84-2.31-5.15-5.15-5.15c-2.49,0-4.57,1.77-5.05,4.12h-3.2c-0.27,0-0.54,0.11-0.73,0.3l-7.94,7.94
			h-2.66V9.7l3.52-3.52h2.77c0.48,2.35,2.56,4.12,5.05,4.12c2.84,0,5.15-2.31,5.15-5.15S64.21,0,61.37,0
			c-2.49,0-4.57,1.77-5.05,4.12h-3.2c-0.27,0-0.54,0.11-0.73,0.3L49,7.82l-3.39-3.39c-0.19-0.19-0.45-0.3-0.73-0.3h-3.2
			C41.2,1.77,39.12,0,36.63,0c-2.84,0-5.15,2.31-5.15,5.15s2.31,5.15,5.15,5.15c2.49,0,4.57-1.77,5.05-4.12h2.77l3.52,3.52v14.09
			h-2.66l-7.94-7.94c-0.19-0.19-0.46-0.3-0.73-0.3h-3.2c-0.48-2.35-2.56-4.12-5.05-4.12c-2.84,0-5.15,2.31-5.15,5.15
			c0,2.84,2.31,5.15,5.15,5.15c2.49,0,4.57-1.77,5.05-4.12h2.77l7.94,7.94c0.19,0.19,0.45,0.3,0.73,0.3h3.09v4.31H29.32
			c-0.48-2.35-2.56-4.12-5.05-4.12c-2.84,0-5.15,2.31-5.15,5.15s2.31,5.15,5.15,5.15c2.49,0,4.57-1.77,5.05-4.12h18.65v4.3h-3.09
			c-0.27,0-0.54,0.11-0.73,0.3l-7.94,7.94h-4.83c-0.48-2.35-2.56-4.12-5.05-4.12c-2.84,0-5.15,2.31-5.15,5.15
			c0,2.84,2.31,5.15,5.15,5.15c2.49,0,4.57-1.77,5.05-4.12h5.26c0.27,0,0.54-0.11,0.73-0.3l7.94-7.94h2.66v13.15l-3.52,3.52h-2.77
			c-0.48-2.35-2.56-4.12-5.05-4.12c-2.84,0-5.15,2.31-5.15,5.15c0,2.84,2.31,5.15,5.15,5.15c2.49,0,4.57-1.77,5.05-4.12h3.2
			c0.27,0,0.54-0.11,0.73-0.3L49,53.62l3.39,3.39c0.19,0.19,0.45,0.3,0.73,0.3h3.2c0.48,2.35,2.56,4.12,5.05,4.12
			c2.84,0,5.15-2.31,5.15-5.15c0-2.84-2.31-5.15-5.15-5.15c-2.49,0-4.57,1.77-5.05,4.12h-2.77l-3.52-3.52V38.59h2.66l7.94,7.94
			c0.19,0.19,0.46,0.3,0.73,0.3h5.26c0.48,2.35,2.56,4.12,5.05,4.12c2.84,0,5.15-2.31,5.15-5.15c0-2.84-2.31-5.15-5.15-5.15
			c-2.49,0-4.57,1.77-5.05,4.12h-4.83l-7.94-7.94c-0.19-0.19-0.46-0.3-0.73-0.3h-3.09v-4.3H68.68z M73.73,28.1
			c1.7,0,3.09,1.39,3.09,3.09s-1.39,3.09-3.09,3.09c-1.7,0-3.09-1.39-3.09-3.09S72.03,28.1,73.73,28.1z M69.61,13.49
			c1.7,0,3.09,1.39,3.09,3.09c0,1.7-1.39,3.09-3.09,3.09c-1.7,0-3.09-1.39-3.09-3.09C66.52,14.88,67.9,13.49,69.61,13.49z
			 M61.37,2.06c1.7,0,3.09,1.39,3.09,3.09s-1.39,3.09-3.09,3.09c-1.7,0-3.09-1.39-3.09-3.09S59.66,2.06,61.37,2.06z M36.63,8.24
			c-1.7,0-3.09-1.39-3.09-3.09s1.39-3.09,3.09-3.09c1.7,0,3.09,1.39,3.09,3.09S38.34,8.24,36.63,8.24z M28.39,19.67
			c-1.7,0-3.09-1.39-3.09-3.09c0-1.7,1.39-3.09,3.09-3.09c1.7,0,3.09,1.39,3.09,3.09C31.48,18.28,30.1,19.67,28.39,19.67z
			 M24.27,34.28c-1.7,0-3.09-1.39-3.09-3.09s1.39-3.09,3.09-3.09c1.7,0,3.09,1.39,3.09,3.09S25.97,34.28,24.27,34.28z M26.33,48.89
			c-1.7,0-3.09-1.39-3.09-3.09c0-1.7,1.39-3.09,3.09-3.09c1.7,0,3.09,1.39,3.09,3.09C29.42,47.5,28.03,48.89,26.33,48.89z
			 M36.63,59.38c-1.7,0-3.09-1.39-3.09-3.09s1.39-3.09,3.09-3.09c1.7,0,3.09,1.39,3.09,3.09S38.34,59.38,36.63,59.38z M61.37,53.2
			c1.7,0,3.09,1.39,3.09,3.09s-1.39,3.09-3.09,3.09c-1.7,0-3.09-1.39-3.09-3.09S59.66,53.2,61.37,53.2z M71.67,42.71
			c1.7,0,3.09,1.39,3.09,3.09c0,1.7-1.39,3.09-3.09,3.09c-1.7,0-3.09-1.39-3.09-3.09C68.58,44.1,69.97,42.71,71.67,42.71z"/>
	</g>
	<g>
		<path class="st0" d="M94.71,72.02h-1.1V16.05c0-0.6-0.49-1.1-1.1-1.1H79.73c-0.61,0-1.1,0.49-1.1,1.1s0.49,1.1,1.1,1.1h11.68
			v54.88H64.6c-1.75,0-3.52,0.42-5.09,1.2c-1.32,0.66-2.74,0.99-4.16,0.99H42.65c-1.42,0-2.84-0.33-4.11-0.97
			c-1.62-0.81-3.38-1.23-5.13-1.23H6.59V17.15h11.68c0.61,0,1.1-0.49,1.1-1.1s-0.49-1.1-1.1-1.1H5.49c-0.61,0-1.1,0.49-1.1,1.1
			v55.98h-1.1C1.48,72.02,0,73.5,0,75.32v2.2C0,80.54,2.46,84,5.49,84h87.02c3.03,0,5.49-3.46,5.49-6.49v-2.2
			C98,73.5,96.52,72.02,94.71,72.02z M95.8,77.51c0,1.81-1.48,4.29-3.29,4.29H5.49c-1.82,0-3.29-2.48-3.29-4.29v-2.2
			c0-0.6,0.49-1.1,1.1-1.1H33.4c1.42,0,2.84,0.33,4.11,0.97c1.62,0.81,3.38,1.23,5.13,1.23h12.71c1.75,0,3.52-0.42,5.09-1.2
			c1.32-0.66,2.74-0.99,4.16-0.99h30.11c0.6,0,1.1,0.49,1.1,1.1V77.51z"/>
	</g>
	<g>
		<path class="st0" d="M87.02,21.54v46.1H10.98v-46.1h7.29c0.61,0,1.1-0.49,1.1-1.1c0-0.6-0.49-1.1-1.1-1.1H9.88
			c-0.61,0-1.1,0.49-1.1,1.1v48.29c0,0.6,0.49,1.1,1.1,1.1h78.24c0.61,0,1.1-0.49,1.1-1.1V20.44c0-0.6-0.49-1.1-1.1-1.1h-8.39
			c-0.61,0-1.1,0.49-1.1,1.1c0,0.6,0.49,1.1,1.1,1.1H87.02z"/>
	</g>
	<g>
		<rect x="9" y="77" class="st0" width="10" height="2"/>
	</g>
	<g>
		<rect x="79" y="77" class="st0" width="10" height="2"/>
	</g>
</g>
</svg>
