<?xml version="1.0" encoding="utf-8"?>
<!-- Generator: Adobe Illustrator 23.1.1, SVG Export Plug-In . SVG Version: 6.00 Build 0)  -->
<svg version="1.0" id="Layer_1" xmlns="http://www.w3.org/2000/svg" xmlns:xlink="http://www.w3.org/1999/xlink" x="0px" y="0px"
	 viewBox="0 0 93 93" style="enable-background:new 0 0 93 93;" xml:space="preserve">
<style type="text/css">
	.st0{fill:#FFFFFF;}
</style>
<g>
	<path class="st0" d="M91.56,0.34H1.45c-0.55,0-1,0.45-1,1v90.11c0,0.55,0.45,1,1,1h90.11c0.55,0,1-0.45,1-1V1.34
		C92.56,0.79,92.11,0.34,91.56,0.34z M2.45,51.61V2.34h88.12v49.27H2.45z M80.12,84.68h6.22v-2h-6.22v-5.77h6.22v-2h-6.22v-5.77
		h6.22v-2h-6.22v-3.66c0-1.62-0.96-3.09-2.43-3.75c-1.46-0.65-3.22-0.37-4.41,0.69l-0.37,0.33l-0.37-0.33
		c-1.51-1.35-3.97-1.35-5.47,0l-0.37,0.33l-0.37-0.33c-1.51-1.35-3.97-1.35-5.47,0l-0.37,0.33l-0.37-0.33
		c-1.18-1.06-2.95-1.34-4.41-0.69c-1.47,0.66-2.43,2.13-2.43,3.75v16.27l-0.71-0.2c-1.51-0.42-3.14,0-4.25,1.08
		c-0.42,0.43-0.75,0.94-0.96,1.51h-1.34c-0.21-0.56-0.53-1.07-0.95-1.5c-1.2-1.17-3.01-1.56-4.59-0.97l-0.75,0.28V63.49
		c0-1.62-0.96-3.09-2.43-3.75c-1.46-0.65-3.22-0.37-4.41,0.69l-0.37,0.33l-0.37-0.33c-1.51-1.35-3.97-1.35-5.47,0l-0.37,0.33
		l-0.37-0.33c-1.51-1.35-3.97-1.35-5.47,0l-0.37,0.33l-0.37-0.33c-1.18-1.06-2.95-1.34-4.41-0.69c-1.48,0.66-2.43,2.13-2.43,3.75
		v3.66H6.67v2h6.22v5.77H6.67v2h6.22v5.77H6.67v2h6.22v5.77H2.45V53.61h88.12v36.84H80.12V84.68z M14.88,63.49
		c0-1.16,0.95-2.11,2.11-2.11s2.11,0.95,2.11,2.11v7.77c0,0.55,0.45,1,1,1s1-0.45,1-1v-7.77c0-1.16,0.95-2.11,2.11-2.11
		s2.11,0.95,2.11,2.11v7.77c0,0.55,0.45,1,1,1s1-0.45,1-1v-7.77c0-1.16,0.95-2.11,2.11-2.11s2.11,0.95,2.11,2.11v7.77
		c0,0.55,0.45,1,1,1s1-0.45,1-1v-7.77c0-1.16,0.95-2.11,2.11-2.11s2.11,0.95,2.11,2.11v18.64c0,0.38,0.22,0.74,0.57,0.9
		c0.33,0.16,0.75,0.12,1.06-0.12l1.05-0.86c0.88-0.84,2.36-0.84,3.24,0.01c0.89,0.89,0.89,2.35,0,3.25l-5.14,5.15H14.88V63.49z
		 M45.07,86.72c0.53-0.53,0.9-1.2,1.09-1.92l0.54-2.08l0.54,2.08c0.19,0.72,0.56,1.39,1.08,1.92l3.73,3.73H41.34L45.07,86.72z
		 M49.74,82.05c0.84-0.81,2.27-0.84,3.14-0.08l0.6,0.77c0.25,0.33,0.75,0.47,1.11,0.34c0.41-0.14,0.68-0.52,0.68-0.94V63.49
		c0-1.16,0.95-2.11,2.11-2.11s2.11,0.95,2.11,2.11v7.77c0,0.55,0.45,1,1,1s1-0.45,1-1v-7.77c0-1.16,0.95-2.11,2.11-2.11
		c1.16,0,2.11,0.95,2.11,2.11v7.77c0,0.55,0.45,1,1,1s1-0.45,1-1v-7.77c0-1.16,0.95-2.11,2.11-2.11s2.11,0.95,2.11,2.11v7.77
		c0,0.55,0.45,1,1,1s1-0.45,1-1v-7.77c0-1.16,0.95-2.11,2.11-2.11s2.11,0.95,2.11,2.11v26.97H54.88l-5.14-5.15
		c-0.43-0.43-0.67-1.01-0.67-1.62C49.07,83.07,49.31,82.49,49.74,82.05z"/>
	<path class="st0" d="M85.35,6.56H7.67c-0.55,0-1,0.45-1,1V46.4c0,0.55,0.45,1,1,1h77.68c0.55,0,1-0.45,1-1V7.56
		C86.35,7,85.9,6.56,85.35,6.56z M84.35,8v37.4H8.66V8H8.11l0,0H84.9l0,0H84.35z"/>
	<rect x="6.67" y="59.38" class="st0" width="5.11" height="2"/>
	<rect x="43.96" y="59.38" class="st0" width="5.1" height="2"/>
	<rect x="43.96" y="67.15" class="st0" width="5.1" height="2"/>
	<rect x="43.96" y="74.92" class="st0" width="5.1" height="2"/>
	<rect x="81.24" y="59.38" class="st0" width="5.11" height="2"/>
</g>
<g>
	<path class="st0" d="M40.63,40.46c1.39,1.19,3.15,1.96,5.08,2.11h1.37c1.93-0.15,3.69-0.92,5.08-2.11l0.97-0.97
		c1.19-1.39,1.96-3.15,2.11-5.08H60v2.05c0,1.13,0.92,2.05,2.05,2.05h5.46c1.13,0,2.05-0.92,2.05-2.05v-5.46
		c0-1.13-0.92-2.05-2.05-2.05h0h-5.46c-1.13,0-2.05,0.92-2.05,2.05v2.05h-4.77c-0.15-1.93-0.92-3.69-2.11-5.08l9.52-5.52h4.18
		c1.51,0,2.73-1.22,2.73-2.73c0-1.29-0.89-2.37-2.09-2.66c-0.29-1.97-2-3.49-4.05-3.49c-2.05,0-3.76,1.52-4.05,3.49
		c-1.2,0.29-2.09,1.37-2.09,2.66c0,1.42,1.09,2.57,2.47,2.71l-7.58,4.58c-1.39-1.19-3.15-1.96-5.08-2.11v-2.77h2.05
		c1.13,0,2.05-0.92,2.05-2.05v-5.46c0-1.13-0.92-2.05-2.05-2.05h-5.46c-1.13,0-2.05,0.92-2.05,2.05v5.46c0,1.13,0.92,2.05,2.05,2.05
		h2.05v2.77c-1.93,0.15-3.69,0.92-5.08,2.11l-5.29-4.29c0.96-1.18,1.54-2.68,1.54-4.32c0-3.76-3.06-6.83-6.83-6.83
		s-6.83,3.06-6.83,6.83s3.06,6.83,6.83,6.83c1.64,0,3.14-0.58,4.32-1.54l5.29,4.29c-1.19,1.39-1.96,3.15-2.11,5.08h-4.77v-2.05
		c0-1.13-0.92-2.05-2.05-2.05h-5.46c-1.13,0-2.05,0.92-2.05,2.05v5.46c0,1.13,0.92,2.05,2.05,2.05h5.46c1.13,0,2.05-0.92,2.05-2.05
		v-2.05h4.77c0.15,1.93,0.92,3.69,2.11,5.08L40.63,40.46z M49.81,18.02h-6.83v-1.37h6.83V18.02z M43.67,13.92h5.46
		c0.38,0,0.68,0.31,0.68,0.68v0.68h-6.83v-0.68C42.98,14.23,43.29,13.92,43.67,13.92z M42.98,20.07v-0.68h6.83v0.68
		c0,0.38-0.31,0.68-0.68,0.68h-5.46C43.29,20.75,42.98,20.44,42.98,20.07z M25.28,30.31h5.46c0.38,0,0.68,0.31,0.68,0.68v0.68H24.6
		v-0.68C24.6,30.62,24.9,30.31,25.28,30.31z M31.43,33.04v1.37H24.6v-1.37H31.43z M30.74,37.14h-5.46c-0.38,0-0.68-0.31-0.68-0.68
		v-0.68h6.83v0.68C31.43,36.83,31.12,37.14,30.74,37.14z M46.4,41.23c-0.73,0-1.52-1.04-2.05-2.73h4.11
		C47.91,40.19,47.13,41.23,46.4,41.23L46.4,41.23z M44,37.14c-0.17-0.83-0.28-1.74-0.31-2.73h5.43c-0.04,0.99-0.15,1.91-0.31,2.73
		H44z M38.92,34.41h3.39c0.03,0.97,0.13,1.89,0.28,2.73h-2.88C39.29,36.3,39.01,35.38,38.92,34.41L38.92,34.41z M46.4,26.21
		c0.73,0,1.52,1.04,2.05,2.73h-4.11C44.88,27.26,45.66,26.21,46.4,26.21L46.4,26.21z M48.8,30.31c0.17,0.83,0.28,1.74,0.31,2.73
		h-5.43c0.04-0.99,0.15-1.91,0.31-2.73H48.8z M42.32,33.04h-3.39c0.09-0.98,0.37-1.9,0.79-2.73h2.88
		C42.44,31.15,42.35,32.07,42.32,33.04L42.32,33.04z M50.48,34.41h3.39c-0.09,0.98-0.37,1.9-0.79,2.73H50.2
		C50.35,36.29,50.45,35.37,50.48,34.41z M50.48,33.04c-0.03-0.97-0.13-1.89-0.28-2.73h2.88c0.43,0.83,0.71,1.75,0.79,2.73H50.48z
		 M58.64,19.7c0-0.75,0.61-1.37,1.37-1.37h0.68v-0.68c0-1.51,1.22-2.73,2.73-2.73c1.31,0,2.4,0.92,2.67,2.15
		c-1.14,0.32-1.99,1.38-1.99,2.63h1.37c0-0.75,0.61-1.37,1.37-1.37s1.37,0.61,1.37,1.37s-0.61,1.37-1.37,1.37H60
		C59.25,21.07,58.64,20.46,58.64,19.7z M52.19,28.94h-2.3c-0.25-0.88-0.57-1.65-0.95-2.28C50.21,27.12,51.34,27.91,52.19,28.94z
		 M43.86,26.66c-0.38,0.63-0.7,1.4-0.95,2.28h-2.3C41.46,27.91,42.58,27.12,43.86,26.66z M30.06,12.92c3.01,0,5.46,2.45,5.46,5.46
		c0,1-0.28,1.94-0.75,2.74c-0.61-1.05-1.55-1.86-2.67-2.32c0.42-0.48,0.68-1.1,0.68-1.79c0-1.51-1.22-2.73-2.73-2.73
		s-2.73,1.22-2.73,2.73c0,0.69,0.26,1.31,0.68,1.79c-1.11,0.46-2.06,1.27-2.67,2.32c-0.47-0.81-0.75-1.74-0.75-2.74
		C24.6,15.37,27.05,12.92,30.06,12.92z M28.69,17.02c0-0.75,0.61-1.37,1.37-1.37s1.37,0.61,1.37,1.37c0,0.75-0.61,1.37-1.37,1.37
		S28.69,17.77,28.69,17.02z M26.28,22.32c0.62-1.52,2.12-2.56,3.78-2.56s3.16,1.04,3.78,2.56c-0.98,0.95-2.32,1.53-3.78,1.53
		S27.26,23.26,26.28,22.32z M40.61,38.5h2.3c0.25,0.88,0.57,1.65,0.95,2.28C42.58,40.32,41.46,39.53,40.61,38.5z M48.93,40.78
		c0.38-0.63,0.7-1.4,0.95-2.28h2.3C51.34,39.53,50.21,40.32,48.93,40.78z M62.05,30.31h5.46c0.38,0,0.68,0.31,0.68,0.68v0.68h-6.83
		v-0.68C61.37,30.62,61.68,30.31,62.05,30.31z M68.2,33.04v1.37h-6.83v-1.37H68.2z M67.51,37.14h-5.46c-0.38,0-0.68-0.31-0.68-0.68
		v-0.68h6.83v0.68C68.2,36.83,67.89,37.14,67.51,37.14z"/>
</g>
</svg>
