<?xml version="1.0" encoding="utf-8"?>
<!-- Generator: Adobe Illustrator 23.1.1, SVG Export Plug-In . SVG Version: 6.00 Build 0)  -->
<svg version="1.0" id="Layer_1" xmlns="http://www.w3.org/2000/svg" xmlns:xlink="http://www.w3.org/1999/xlink" x="0px" y="0px"
	 viewBox="0 0 99.53 115.53" style="enable-background:new 0 0 99.53 115.53;" xml:space="preserve">
<style type="text/css">
	.st0{fill:#FFFFFF;}
</style>
<g>
	<path class="st0" d="M77.86,100.88h0.05c0.05,0,0.09,0,0.14,0c14.12,0,20.76-6.43,21.04-6.71c0.18-0.19,0.28-0.44,0.26-0.7
		c-1.08-15.77-10.66-29.2-13.57-32.94l-0.15-0.2l0.12-0.21c2.61-4.69,3.88-10.01,3.69-15.38l-0.02-0.63l2.6,1.31
		c0.31,0.16,0.64,0.24,0.98,0.24c0,0,0,0,0.01,0c0.78,0,1.5-0.42,1.89-1.09l3.99-6.94c0.53-0.89,0.34-2.04-0.44-2.72l-7.77-6.83
		c-1.17-1.03-2.58-1.77-4.08-2.15l-3.01-0.75l-0.07,0.37l-0.03-0.38l-0.09-0.01l-0.23,0.03c-0.05,0.01-0.1,0.03-0.19,0.08l-0.1,0.05
		c-0.05,0.04-0.1,0.08-0.15,0.14l-0.08,0.1c-0.04,0.06-0.06,0.12-0.1,0.22l-0.03,0.13l0.37,0.07l0,0l-0.4,0.07
		c-0.05,0.6-0.17,1.58-0.4,2.87l-0.04,0.22l-0.22,0.07c-2.2,0.68-4.49,1.03-6.8,1.03c-0.19,0-0.39,0-0.57-0.01
		c-0.17,0-0.34,0-0.51,0c-2.33-0.01-4.64-0.37-6.86-1.07l-0.22-0.07l-0.04-0.22c-0.23-1.33-0.34-2.34-0.39-2.94
		c-0.02-0.26-0.16-0.5-0.37-0.66c-0.15-0.11-0.33-0.17-0.52-0.17c-0.08,0-0.16,0.01-0.22,0.03l-3.01,0.74
		c-1.5,0.37-2.92,1.11-4.1,2.12l-7.82,6.78c-0.77,0.68-0.97,1.82-0.46,2.71l3.96,6.97c0.38,0.68,1.11,1.1,1.89,1.1c0,0,0,0,0.01,0
		c0.33,0,0.66-0.08,0.96-0.23l2.61-1.29l-0.03,0.63c-0.23,5.37,1.01,10.69,3.59,15.41l0.12,0.22l-0.15,0.19
		c-2.93,3.72-12.59,17.1-13.76,32.85c-0.02,0.26,0.08,0.52,0.26,0.7c0.28,0.28,6.93,6.79,21.14,6.83c1.14,0,2.39-0.04,3.7-0.13
		c0.01,0,0.01,0,0.02,0v11.67h-5v2h12v-2h-5v-11.56C76.78,100.86,77.33,100.88,77.86,100.88z M81.43,31.76
		c-1.06,4.16-3.12,9.46-6.9,11.05l-0.15,0.06l-0.15-0.06c-3.77-1.61-5.79-6.92-6.83-11.09l-0.15-0.59l0.6,0.14
		c2.06,0.49,4.18,0.74,6.29,0.74l0.55,0c2.1-0.02,4.23-0.23,6.29-0.71l0.6-0.14L81.43,31.76z M59.37,29.33
		c0.96-0.83,2.11-1.43,3.34-1.73l2.01-0.49l0.05,0.41c0.42,3.17,2.27,13.75,8.34,16.76l2.46,0.06l0.08-0.04
		c6.08-2.97,7.99-13.56,8.43-16.73l0.06-0.41l2,0.51c1.23,0.31,2.38,0.92,3.33,1.75l8,7.02l-4.33,7.52l-4.26-2.15l-0.15-0.05
		c-0.06-0.02-0.12-0.04-0.17-0.05c-0.07-0.01-0.13-0.02-0.2-0.02l-0.15,0.02c-0.23,0.05-0.43,0.19-0.58,0.43l-0.05,0.1
		c-0.04,0.11-0.07,0.24-0.06,0.35l0,0.17c0.02,0.17,0.05,0.58,0.08,1.15l0.01,2.55c-0.07,4.34-1.2,8.65-3.27,12.46l-0.19,2.44
		l0.08,0.11c2.2,2.87,4.19,5.94,5.93,9.12l1.19,2.31l-0.04,0.03c0.82,1.17,4.8,11.64,5.62,15.89l0.43,2.89
		c0.05,0.41,0.09,0.81,0.13,1.22l0.02,0.2l-0.15,0.12c-1.68,1.36-8.02,5.79-19.37,5.79c-0.04,0-0.09,0-0.13,0
		c-0.78,0-1.6-0.03-2.36-0.07l-2.57-0.03c-0.8,0.04-1.58,0.06-2.31,0.06c-0.28,0.01-0.54,0-0.82-0.01l-2.76-0.14
		c-9.33-0.82-14.58-4.61-15.96-5.75l-0.15-0.13l0.02-0.2c0.21-2.21,0.58-4.43,1.12-6.58c0.34-0.99,3.45-9.93,7.65-17.91l1.48-2.38
		c1.45-2.21,2.63-3.78,3.21-4.51l0.09-0.11l-0.13-2.29l-0.04-0.16c-2.05-3.82-3.15-8.14-3.19-12.49l0.03-2.57
		c0.04-0.73,0.09-1.18,0.09-1.21c0.04-0.33-0.1-0.66-0.37-0.85c-0.16-0.11-0.37-0.14-0.53-0.17c-0.14,0-0.27,0.03-0.39,0.09
		l-4.35,2.15l-4.29-7.54L59.37,29.33z M82.98,25.69L82.98,25.69L82.98,25.69L82.98,25.69L82.98,25.69z"/>
	<path class="st0" d="M26.6,51.46l0.06-0.1c1.87-3.4,2.79-7.25,2.63-11.12l-0.01-0.3l1.74,0.87c0.77,0.39,1.76,0.08,2.18-0.66
		l2.86-5.01c0.4-0.68,0.25-1.55-0.34-2.07l-5.61-4.9c-0.85-0.75-1.88-1.29-2.98-1.56l-2.11-0.53l-0.18-0.04l-0.22,0.03
		c-0.04,0.01-0.08,0.02-0.16,0.06l-0.1,0.05c-0.05,0.03-0.08,0.07-0.13,0.11l-0.07,0.09c-0.03,0.05-0.05,0.1-0.08,0.18l-0.05,0.21
		c-0.06,0.63-0.15,1.32-0.28,2.06l-0.02,0.11l-0.1,0.03c-1.71,0.53-3.53,0.79-5.28,0.75l-0.37,0c-1.67,0-3.32-0.25-4.91-0.75
		l-0.1-0.03l-0.02-0.11c-0.17-0.96-0.25-1.68-0.29-2.11c-0.02-0.21-0.13-0.41-0.31-0.54c-0.18-0.12-0.41-0.16-0.61-0.11L9.58,26.6
		c-1.1,0.28-2.13,0.81-2.98,1.56l-5.61,4.9c-0.59,0.52-0.74,1.39-0.35,2.07l2.87,5.01c0.42,0.73,1.41,1.04,2.18,0.66l1.74-0.87
		l-0.01,0.3c-0.15,3.88,0.76,7.73,2.63,11.13l0.06,0.1l-0.07,0.09c-2.11,2.69-9.04,12.36-9.85,23.73c-0.01,0.21,0.06,0.42,0.21,0.57
		c0.21,0.21,5.68,5.42,17.21,4.83v11.46h-5.25v1.5h12v-1.5h-5.25V80.7c0.65,0.04,1.29,0.06,1.9,0.06h0.02
		c10.28,0,15.1-4.7,15.29-4.9c0.15-0.15,0.23-0.36,0.22-0.58c-0.81-11.38-7.75-21.04-9.86-23.74L26.6,51.46z M17.62,74.45v4.76
		l-0.17,0.01c-0.61,0.03-1.2,0.05-1.76,0.05l-0.77-0.01l2.23-4.91L17.62,74.45z M9.53,60.32c0.17,0.12,0.33,0.26,0.48,0.4
		c0.24,0.24,0.63,0.28,0.9,0.11c0.7-0.41,1.63-0.34,2.27,0.16c0.66,0.52,0.92,1.37,0.67,2.17c-0.24,0.8-0.94,1.36-1.78,1.42
		c-0.28,0.02-0.53,0.2-0.63,0.46c-0.1,0.26-0.05,0.56,0.14,0.77c0.56,0.61,0.68,1.48,0.33,2.22c-0.33,0.69-1.04,1.14-1.81,1.14
		l-0.13,0c-0.82-0.05-1.52-0.58-1.77-1.37c-0.08-0.2-0.12-0.42-0.11-0.64c0-0.41-0.33-0.74-0.74-0.74c-0.41,0-0.74,0.33-0.74,0.74
		c0,0.23-0.04,0.46-0.12,0.67c-0.24,0.69-0.83,1.2-1.55,1.32c-0.73,0.12-1.45-0.16-1.9-0.73l-0.06-0.07L3,68.26
		c1.2-3.89,2.89-7.62,5.01-11.08l0.09-0.14l0.15,0.07c0.69,0.34,1.12,1.03,1.12,1.8c0,0.2-0.03,0.4-0.09,0.59
		C9.16,59.8,9.27,60.13,9.53,60.32z M10.31,42.73c0,0.14-0.02,0.28-0.07,0.42c-0.1,0.31,0.01,0.63,0.27,0.82
		c0.13,0.09,0.25,0.19,0.36,0.3c0.23,0.23,0.6,0.28,0.89,0.12c0.22-0.13,0.48-0.2,0.74-0.2c0.78,0,1.41,0.61,1.44,1.38
		c0.03,0.78-0.56,1.43-1.33,1.49c-0.28,0.02-0.53,0.2-0.63,0.46c-0.1,0.26-0.05,0.56,0.14,0.77c0.34,0.36,0.46,0.86,0.33,1.33
		c-0.13,0.47-0.49,0.84-0.96,0.98l-0.14,0.04l-0.07-0.13c-1.51-2.76-2.33-5.89-2.37-9.04l0-0.22l0.21,0.04
		C9.81,41.44,10.31,42.04,10.31,42.73z M23.32,30.88c-0.75,2.98-2.2,6.77-4.89,7.91l-0.07,0.03l-0.07-0.03
		c-2.68-1.14-4.14-4.93-4.89-7.91l-0.07-0.28l0.29,0.07c1.49,0.35,3.02,0.52,4.55,0.52h0.4c1.53,0,3.06-0.18,4.55-0.52l0.29-0.07
		L23.32,30.88z M24.27,49.63c-0.13-0.47-0.01-0.97,0.33-1.33c0.19-0.21,0.24-0.51,0.14-0.77c-0.1-0.26-0.35-0.44-0.63-0.46
		c-0.78-0.06-1.36-0.71-1.33-1.49c0.03-0.78,0.66-1.39,1.43-1.39l0-0.36l0,0l0.01,0.36c0.26,0,0.51,0.07,0.74,0.2
		c0.29,0.16,0.66,0.11,0.89-0.12c0.12-0.11,0.24-0.22,0.37-0.31c0.25-0.19,0.35-0.51,0.26-0.81c-0.04-0.14-0.07-0.28-0.07-0.42
		c0-0.7,0.5-1.3,1.19-1.42l0.21-0.04l0,0.22c-0.04,3.15-0.86,6.28-2.37,9.04l-0.07,0.13l-0.14-0.04
		C24.75,50.47,24.39,50.11,24.27,49.63z M34.58,72.12c-0.38,0.46-0.94,0.73-1.53,0.73c-0.87,0-1.63-0.55-1.9-1.38
		c-0.08-0.2-0.12-0.42-0.11-0.64c0-0.41-0.33-0.74-0.74-0.74s-0.74,0.33-0.74,0.74c0,0.23-0.04,0.46-0.13,0.67
		c-0.28,0.8-1.04,1.34-1.89,1.34c-0.79,0-1.52-0.47-1.84-1.2c-0.32-0.73-0.18-1.58,0.35-2.17c0.19-0.21,0.24-0.51,0.14-0.77
		c-0.1-0.26-0.35-0.44-0.63-0.46c-1.06-0.07-1.88-0.95-1.87-2.01c0-1.11,0.9-2.01,2.01-2.01v-0.36l0.02,0.36
		c0.35,0,0.7,0.09,1.01,0.27c0.28,0.16,0.67,0.12,0.9-0.11c0.15-0.14,0.31-0.28,0.48-0.4c0.26-0.19,0.37-0.52,0.27-0.82
		c-0.06-0.19-0.09-0.39-0.09-0.59c0-1.13,0.91-2.01,2.03-2.01c0.08,0.01,0.15,0.02,0.23,0.04l0.08,0.02l0.04,0.08
		c1.85,3.56,3.18,7.36,3.96,11.28l0.02,0.08L34.58,72.12z M28.57,37.97c-0.03,0-0.07-0.01-0.16-0.01l-0.12,0.02
		c-0.19,0.04-0.35,0.16-0.48,0.36l-0.04,0.08c-0.04,0.09-0.05,0.19-0.05,0.3l0,0.1l0,0.01c0.01,0.11,0.04,0.4,0.06,0.82l0.01,0.17
		l-0.17,0.01c-1.46,0.11-2.62,1.3-2.69,2.76l-0.01,0.2l-0.2-0.03c-0.17-0.03-0.34-0.04-0.52-0.05c-1.33,0-2.49,0.9-2.82,2.19
		c-0.33,1.29,0.25,2.63,1.41,3.28l0.13,0.07l-0.04,0.14c-0.09,0.28-0.13,0.58-0.13,0.87c0,1.43,1.04,2.64,2.45,2.87l0.07,0.01
		l0.04,0.06c1.64,2.11,3.12,4.36,4.4,6.69l0.12,0.21l-0.24,0.05c-1.61,0.33-2.79,1.77-2.79,3.43l0.01,0.34l-0.23-0.06
		c-1.72-0.45-3.55,0.53-4.15,2.18c-0.62,1.69,0.13,3.56,1.76,4.35l0.15,0.07l-0.06,0.15c-0.59,1.58,0.03,3.35,1.47,4.22
		c1.4,0.84,3.34,0.54,4.42-0.69l0.13-0.15l0.13,0.15c1.03,1.18,2.86,1.51,4.24,0.77l0.23-0.12l0.03,0.26
		c0.03,0.29,0.07,0.58,0.09,0.88l0.01,0.09l-0.07,0.06c-1.2,0.98-5.76,4.19-13.97,4.19c-0.57,0-1.14-0.01-1.72-0.04l-0.17-0.01
		V40.13l0.1-0.05c4.5-2.1,5.88-9.86,6.2-12.18l0.03-0.2l1.35,0.34c0.87,0.22,1.69,0.64,2.36,1.24l5.72,4.99l-3.02,5.29l-2.99-1.5
		L28.57,37.97z M7.58,29.27c0.68-0.59,1.5-1.02,2.37-1.23l1.35-0.34l0.03,0.2c0.32,2.32,1.7,10.07,6.2,12.17l0.1,0.05v29.64
		l-4.28,9.42l-0.13-0.01C6.51,78.6,2.75,75.9,1.75,75.08l-0.07-0.06l0.01-0.09c0.14-1.58,0.41-3.16,0.78-4.7l0.06-0.24l0.21,0.13
		c1.4,0.88,3.38,0.6,4.47-0.65l0.13-0.15l0.13,0.15c1.08,1.23,3.01,1.53,4.42,0.69c1.45-0.87,2.06-2.64,1.47-4.22l-0.06-0.15
		l0.15-0.07c1.62-0.79,2.37-2.66,1.75-4.34c-0.6-1.64-2.42-2.62-4.15-2.18l-0.23,0.06l0.01-0.35c0-1.26-0.69-2.42-1.78-3.04
		l-0.17-0.09l0.1-0.16c1.14-1.76,2.08-2.97,2.42-3.41l0.04-0.05l0.07-0.01c1.42-0.23,2.45-1.43,2.45-2.87c0-0.3-0.05-0.59-0.14-0.87
		l-0.04-0.14l0.13-0.07c1.25-0.7,1.81-2.18,1.33-3.52c-0.47-1.32-1.85-2.14-3.25-1.9l-0.2,0.04l-0.01-0.2
		c-0.07-1.46-1.23-2.65-2.69-2.76l-0.17-0.01l0.01-0.17c0.02-0.47,0.06-0.78,0.06-0.86c0.03-0.27-0.08-0.54-0.31-0.69
		c-0.22-0.15-0.5-0.18-0.76-0.06l-3.05,1.52l-3.03-5.28L7.58,29.27z"/>
	<path class="st0" d="M54.74,0.96c-0.71-0.09-1.43-0.17-2.14-0.22l-0.16,2.1c0.67,0.05,1.36,0.12,2.03,0.21L54.74,0.96z"/>
	<path class="st0" d="M63.09,2.95c-0.67-0.24-1.36-0.46-2.05-0.66l-0.6,2.02c0.65,0.19,1.31,0.4,1.94,0.63L63.09,2.95z"/>
	<path class="st0" d="M34.42,5.66l-0.8-1.94c-0.66,0.27-1.32,0.57-1.97,0.88l0.9,1.9C33.16,6.2,33.79,5.92,34.42,5.66z"/>
	<path class="st0" d="M74.4,9.09c-0.57-0.43-1.15-0.86-1.74-1.27l-1.19,1.73c0.56,0.39,1.12,0.79,1.65,1.2L74.4,9.09z"/>
	<path class="st0" d="M67.07,4.59c-0.64-0.31-1.3-0.6-1.97-0.87l-0.8,1.94c0.63,0.26,1.25,0.54,1.86,0.83L67.07,4.59z"/>
	<path class="st0" d="M70.85,6.65c-0.61-0.37-1.24-0.74-1.87-1.08l-1,1.85c0.59,0.32,1.19,0.67,1.77,1.02L70.85,6.65z"/>
	<path class="st0" d="M58.97,1.74c-0.69-0.17-1.4-0.32-2.11-0.45l-0.38,2.07c0.67,0.12,1.34,0.27,2,0.42L58.97,1.74z"/>
	<path class="st0" d="M39.76,1.73l0.49,2.04c0.66-0.16,1.33-0.3,2-0.42l-0.38-2.07C41.17,1.42,40.46,1.57,39.76,1.73z"/>
	<path class="st0" d="M30.73,7.42l-1-1.85c-0.63,0.34-1.25,0.7-1.87,1.08l1.1,1.79C29.54,8.09,30.13,7.75,30.73,7.42z"/>
	<path class="st0" d="M50.45,0.62c-0.71-0.02-1.44-0.02-2.15,0l0.05,2.1c0.68-0.02,1.37-0.02,2.04,0L50.45,0.62z"/>
	<path class="st0" d="M44,0.95l0.27,2.08c0.67-0.09,1.35-0.16,2.03-0.21l-0.16-2.1C45.43,0.79,44.71,0.86,44,0.95z"/>
	<path class="st0" d="M35.63,2.95l0.7,1.98c0.64-0.23,1.29-0.44,1.95-0.63l-0.59-2.02C37,2.49,36.31,2.71,35.63,2.95z"/>
	<path class="st0" d="M27.24,9.56l-1.19-1.73c-0.59,0.41-1.17,0.83-1.74,1.27l1.28,1.67C26.13,10.35,26.69,9.94,27.24,9.56z"/>
	<path class="st0" d="M75.43,11.24l-2.16,2.16l4.46,4.46l4.46-4.46l-4.46-4.46l-1.57,1.57c-0.02-0.02-0.04-0.04-0.06-0.05
		L75.43,11.24z M79.91,13.4l-2.18,2.18l-2.18-2.18l2.18-2.18L79.91,13.4z"/>
	<path class="st0" d="M25.47,13.39l-2.17-2.17l-0.66-0.78c-0.02,0.02-0.04,0.03-0.06,0.05l-1.57-1.57l-4.46,4.46l4.46,4.46
		L25.47,13.39z"/>
</g>
</svg>
