<?xml version="1.0" encoding="utf-8"?>
<!-- Generator: Adobe Illustrator 23.1.1, SVG Export Plug-In . SVG Version: 6.00 Build 0)  -->
<svg version="1.0" id="Layer_1" xmlns="http://www.w3.org/2000/svg" xmlns:xlink="http://www.w3.org/1999/xlink" x="0px" y="0px"
	 viewBox="0 0 99.53 102.53" style="enable-background:new 0 0 99.53 102.53;" xml:space="preserve">
<style type="text/css">
	.st0{fill:#FFFFFF;}
</style>
<g>
	<path class="st0" d="M95.11,89.75h-1.1V33.77c0-0.23-0.07-0.45-0.2-0.62v-0.28h-0.28c-0.18-0.12-0.39-0.2-0.62-0.2H66.14
		c-0.61,0-1.1,0.49-1.1,1.1s0.49,1.1,1.1,1.1h25.68v54.88H65.01c-1.75,0-3.51,0.42-5.09,1.2c-1.3,0.65-2.74,1-4.16,1H43.05
		c-1.42,0-2.84-0.34-4.11-0.97c-1.6-0.8-3.38-1.23-5.13-1.23H6.99V34.87h22.68c0.61,0,1.1-0.49,1.1-1.1s-0.49-1.1-1.1-1.1H5.89
		c-0.23,0-0.45,0.07-0.62,0.2H4.99v0.28c-0.12,0.18-0.2,0.39-0.2,0.62v55.98H3.7c-1.82,0-3.29,1.48-3.29,3.29v2.19
		c0,2.94,2.45,6.49,5.49,6.49h87.02c3.04,0,5.49-3.55,5.49-6.49v-2.19C98.4,91.23,96.93,89.75,95.11,89.75z M92.92,99.53H5.89
		c-1.74,0-3.29-2.4-3.29-4.29v-2.19c0-0.61,0.49-1.1,1.1-1.1H33.8c1.42,0,2.84,0.33,4.11,0.97c1.6,0.8,3.38,1.23,5.13,1.23h12.71
		c1.75,0,3.51-0.42,5.09-1.2c1.3-0.65,2.74-0.99,4.16-0.99h30.11c0.61,0,1.1,0.49,1.1,1.1v2.19C96.21,97.13,94.66,99.53,92.92,99.53
		z"/>
	<path class="st0" d="M89.15,37.26c-0.18-0.12-0.39-0.19-0.62-0.19H68.14c-0.61,0-1.1,0.49-1.1,1.1c0,0.6,0.49,1.1,1.1,1.1h19.29
		v46.1H11.38v-46.1h16.29c0.61,0,1.1-0.49,1.1-1.1c0-0.61-0.49-1.1-1.1-1.1H10.28c-0.23,0-0.45,0.07-0.62,0.19H9.38v0.28
		c-0.12,0.18-0.2,0.39-0.2,0.62v48.29c0,0.23,0.07,0.45,0.2,0.62v0.28h0.28c0.18,0.12,0.39,0.2,0.62,0.2h78.24
		c0.23,0,0.45-0.07,0.62-0.2h0.28v-0.28c0.12-0.18,0.2-0.39,0.2-0.62V38.16c0-0.23-0.07-0.45-0.2-0.62v-0.28H89.15z"/>
	<rect x="9.4" y="94.72" class="st0" width="10" height="2"/>
	<rect x="79.4" y="94.72" class="st0" width="10" height="2"/>
	<path class="st0" d="M27.63,19.99c0.56,0.98,1.87,1.39,2.89,0.88l2.65-1.32l-0.03,0.65c-0.21,5.44,1.06,10.83,3.68,15.59l0.12,0.22
		l-0.16,0.2c-2.96,3.78-12.7,17.37-13.84,33.32c-0.02,0.26,0.08,0.52,0.26,0.71c0.28,0.28,7.05,6.86,21.44,6.86
		c1.18,0,2.42-0.05,3.75-0.14c1.3,0.1,2.56,0.15,3.72,0.15h0.03c14.41,0,21.15-6.58,21.43-6.86c0.19-0.19,0.28-0.44,0.26-0.71
		C72.71,53.56,62.97,39.98,60,36.2L59.85,36l0.12-0.22c2.63-4.76,3.9-10.15,3.69-15.59l-0.03-0.65l2.64,1.32
		c1.02,0.52,2.34,0.11,2.9-0.88l4.03-7.05c0.53-0.9,0.34-2.06-0.46-2.74l-7.89-6.9c-1.18-1.03-2.61-1.78-4.14-2.17L57.74,0.4
		l-0.26-0.04l-0.26,0.03c-0.05,0.01-0.09,0.03-0.16,0.06l-0.12,0.07c-0.05,0.04-0.1,0.08-0.15,0.14L56.7,0.77
		C56.67,0.83,56.64,0.88,56.6,1l-0.06,0.26c-0.05,0.6-0.16,1.59-0.4,2.91L56.1,4.39l-0.22,0.07c-2.25,0.7-4.59,1.06-6.96,1.06
		c-0.17,0-0.35,0-0.51-0.01c-2.55,0.06-5.06-0.3-7.48-1.05l-0.22-0.07l-0.04-0.23c-0.24-1.35-0.35-2.37-0.41-2.98
		c-0.02-0.27-0.16-0.51-0.38-0.66c-0.21-0.15-0.5-0.21-0.75-0.14l-3.05,0.76c-1.52,0.38-2.96,1.13-4.14,2.16l-7.9,6.9
		c-0.78,0.69-0.98,1.84-0.46,2.74L27.63,19.99z M62.1,18.04L62.1,18.04L62.1,18.04L62.1,18.04z M58.47,34.75l-0.15,0.27l-0.3-0.09
		c-0.7-0.21-1.24-0.76-1.43-1.48c-0.19-0.71-0.01-1.45,0.5-1.99c0.23-0.26,0.3-0.63,0.17-0.95c-0.13-0.32-0.43-0.54-0.78-0.57
		c-1.16-0.08-2.04-1.06-2-2.23c0.04-1.17,0.99-2.08,2.15-2.08l0-0.38l0.01,0.38c0.39,0,0.77,0.1,1.11,0.29
		c0.35,0.2,0.81,0.14,1.1-0.15c0.17-0.16,0.36-0.31,0.53-0.44c0.3-0.23,0.43-0.63,0.31-1c-0.06-0.2-0.1-0.42-0.1-0.63
		c0-1.05,0.75-1.94,1.78-2.13l0.46-0.08l-0.01,0.46C61.77,26.42,60.61,30.84,58.47,34.75z M71.34,65.16
		c-0.56,0.68-1.38,1.07-2.26,1.08c-1.28,0-2.4-0.81-2.79-2.02c-0.12-0.3-0.17-0.62-0.17-0.95c0-0.5-0.41-0.91-0.91-0.91
		s-0.91,0.41-0.91,0.91c0,0.34-0.06,0.68-0.18,0.99c-0.41,1.19-1.53,1.98-2.79,1.98c-1.17,0-2.23-0.69-2.71-1.76
		c-0.48-1.07-0.27-2.33,0.52-3.19c0.23-0.25,0.3-0.63,0.17-0.95c-0.13-0.32-0.43-0.54-0.78-0.57c-1.56-0.1-2.76-1.4-2.75-2.96
		c0-1.63,1.33-2.96,2.96-2.97v-0.38l0.02,0.38c0.52,0,1.04,0.14,1.48,0.4c0.34,0.21,0.82,0.15,1.11-0.14
		c0.21-0.21,0.44-0.4,0.69-0.58c0.32-0.23,0.45-0.64,0.33-1.01c-0.09-0.28-0.14-0.58-0.14-0.87c0-1.66,1.34-2.96,3-2.96
		c0.11,0.01,0.23,0.03,0.34,0.05l0.17,0.04l0.08,0.16c2.6,5.02,4.48,10.38,5.58,15.92l0.04,0.18L71.34,65.16z M63.09,17.24
		l-0.14-0.05c-0.06-0.02-0.12-0.04-0.19-0.05l-0.17-0.01l-0.16,0.02c-0.23,0.05-0.44,0.2-0.59,0.43l-0.05,0.1
		c-0.04,0.11-0.07,0.24-0.06,0.37l0,0.15c0.02,0.16,0.05,0.57,0.08,1.15l0.02,0.37l-0.37,0.03c-1.99,0.15-3.57,1.77-3.67,3.77
		l-0.02,0.43l-0.43-0.07c-0.23-0.04-0.47-0.06-0.7-0.06c-1.81,0-3.39,1.22-3.84,2.98c-0.45,1.75,0.34,3.59,1.92,4.47l0.27,0.15
		l-0.09,0.3c-0.12,0.39-0.19,0.79-0.19,1.19c0.01,1.95,1.41,3.59,3.34,3.91l0.15,0.02l0.09,0.12c2.31,2.97,4.39,6.15,6.21,9.44
		l0.25,0.46l-0.51,0.11c-2.21,0.46-3.82,2.43-3.82,4.7l0.02,0.65l-0.5-0.13c-0.39-0.1-0.8-0.15-1.2-0.15c-2,0-3.8,1.26-4.49,3.13
		c-0.85,2.32,0.18,4.88,2.4,5.96l0.32,0.15l-0.12,0.33c-0.81,2.16,0.04,4.59,2.02,5.78c0.74,0.45,1.59,0.68,2.46,0.68
		c1.38,0,2.68-0.59,3.59-1.62l0.29-0.33l0.29,0.33c0.9,1.03,2.2,1.62,3.57,1.62c0.78,0,1.55-0.19,2.24-0.56l0.5-0.27l0.07,0.56
		c0.05,0.41,0.09,0.82,0.13,1.24l0.02,0.2l-0.16,0.13c-1.7,1.39-8.16,5.93-19.75,5.93c-0.79,0-1.61-0.02-2.43-0.06l-0.36-0.02V19.97
		l0.22-0.1c6.27-2.92,8.2-13.79,8.65-17.05l0.06-0.42l2.04,0.51c1.25,0.31,2.41,0.92,3.38,1.77l8.13,7.09l-4.37,7.64L63.09,17.24z
		 M62.7,17.51L62.7,17.51L62.7,17.51L62.7,17.51z M55.52,7.07c-1.06,4.22-3.13,9.6-6.96,11.22l-0.15,0.06l-0.15-0.06
		c-3.83-1.62-5.9-7-6.96-11.22l-0.15-0.61l0.61,0.14c2.08,0.49,4.23,0.73,6.37,0.73h0.56c2.14,0,4.29-0.25,6.37-0.73l0.61-0.14
		L55.52,7.07z M43.37,75.25l3.27-7.19l0.86,0.19v6.94l-0.36,0.02c-0.88,0.04-1.72,0.07-2.48,0.07L43.37,75.25z M36.06,48.36
		c0.25,0.18,0.49,0.37,0.7,0.58c0.29,0.29,0.77,0.34,1.1,0.14c1.03-0.6,2.4-0.51,3.34,0.24c0.97,0.76,1.36,2.02,1,3.2
		c-0.36,1.18-1.39,2-2.62,2.09c-0.35,0.02-0.65,0.24-0.78,0.57c-0.13,0.32-0.06,0.69,0.17,0.95c0.82,0.9,1.01,2.18,0.48,3.28
		c-0.52,1.08-1.63,1.74-2.86,1.67c-1.21-0.08-2.23-0.86-2.61-2.01c-0.12-0.3-0.17-0.62-0.17-0.95c0-0.5-0.41-0.91-0.91-0.91
		s-0.91,0.41-0.91,0.91c0,0.34-0.06,0.67-0.18,0.99c-0.35,1.02-1.23,1.76-2.29,1.94c-1.06,0.19-2.13-0.24-2.8-1.08l-0.12-0.16
		l0.06-0.19c1.7-5.48,4.07-10.74,7.07-15.63l0.18-0.3l0.31,0.16c1.01,0.5,1.64,1.52,1.64,2.65c0,0.3-0.05,0.59-0.14,0.87
		C35.61,47.72,35.74,48.12,36.06,48.36z M35.43,21.58c1.03,0.19,1.78,1.08,1.78,2.13c0,0.21-0.03,0.42-0.1,0.63
		c-0.12,0.38,0.01,0.78,0.33,1.01c0.18,0.13,0.36,0.28,0.53,0.44c0.28,0.28,0.75,0.34,1.09,0.15c0.33-0.19,0.72-0.29,1.11-0.29
		c1.16,0,2.11,0.91,2.16,2.07c0.04,1.17-0.83,2.15-2,2.23c-0.34,0.03-0.65,0.25-0.77,0.57c-0.13,0.32-0.06,0.69,0.17,0.94
		c0.5,0.54,0.69,1.28,0.5,2c-0.19,0.71-0.73,1.26-1.43,1.47l-0.3,0.09l-0.15-0.27c-2.14-3.91-3.3-8.33-3.35-12.79l-0.01-0.46
		L35.43,21.58z M33.15,4.67c0.97-0.84,2.14-1.45,3.38-1.77l2.04-0.51l0.06,0.42c0.44,3.25,2.38,14.1,8.65,17.03l0.22,0.1v41.83
		l-6.08,13.37l-0.27-0.02c-9.45-0.8-14.79-4.62-16.19-5.78l-0.16-0.13l0.02-0.2c0.2-2.24,0.57-4.47,1.1-6.63l0.13-0.52l0.45,0.28
		c0.76,0.48,1.64,0.73,2.54,0.73c1.37,0,2.68-0.59,3.59-1.62l0.29-0.33l0.29,0.33c0.91,1.03,2.21,1.62,3.59,1.62
		c0.87,0,1.71-0.24,2.46-0.68c1.98-1.19,2.83-3.62,2.01-5.78l-0.12-0.33l0.31-0.15c2.22-1.08,3.25-3.64,2.4-5.95
		c-0.69-1.88-2.49-3.13-4.49-3.13c-0.4,0-0.8,0.05-1.19,0.15l-0.49,0.13l0.02-0.66c0-1.73-0.94-3.32-2.44-4.17l-0.36-0.2l0.22-0.34
		c1.63-2.5,2.93-4.2,3.42-4.81l0.09-0.12l0.15-0.02c1.93-0.31,3.33-1.95,3.34-3.9c0-0.4-0.06-0.8-0.18-1.19l-0.1-0.3l0.27-0.15
		c1.7-0.95,2.46-2.97,1.81-4.8c-0.64-1.8-2.54-2.92-4.43-2.58l-0.43,0.07l-0.02-0.43c-0.1-2-1.67-3.61-3.67-3.76l-0.37-0.03
		L35,19.36c0.04-0.74,0.09-1.19,0.09-1.22c0.04-0.33-0.1-0.66-0.38-0.85c-0.27-0.19-0.64-0.22-0.93-0.07l-4.4,2.2l-4.37-7.63
		L33.15,4.67z M57.06,0.91L57.06,0.91L57.06,0.91L57.06,0.91z"/>
	<path class="st0" d="M86.16,19.55c0.01-0.6,0.16-1.19,0.46-1.71l-2.03-1.16c-0.5,0.88-0.76,1.88-0.76,2.92l2.34,0L86.16,19.55z"/>
	<path class="st0" d="M89.64,16.06l-0.02-2.34c-1.03,0.01-2.03,0.29-2.91,0.81l1.19,2.02C88.42,16.24,89.03,16.07,89.64,16.06z"/>
	<path class="st0" d="M86.77,24.65l1.17-2.03c-0.53-0.31-0.98-0.75-1.29-1.28l-2.02,1.18C85.14,23.41,85.88,24.14,86.77,24.65z"/>
	<path class="st0" d="M92.69,17.79l2.01-1.19c-0.52-0.88-1.27-1.61-2.16-2.11l-1.15,2.04C91.93,16.82,92.38,17.26,92.69,17.79z"/>
	<path class="st0" d="M92.61,24.64l-1.18-2.02c-0.53,0.31-1.13,0.47-1.75,0.47l0.01,2.34C90.72,25.42,91.73,25.15,92.61,24.64z"/>
	<path class="st0" d="M92.72,21.33l2.03,1.17c0.51-0.88,0.78-1.9,0.78-2.92v-0.06l-2.34,0.06C93.18,20.19,93.02,20.8,92.72,21.33z"
		/>
	<rect x="9.71" y="12" transform="matrix(0.7071 -0.7071 0.7071 0.7071 -6.609 11.5965)" class="st0" width="1.96" height="3.55"/>
	<rect x="4.37" y="6.67" transform="matrix(0.7055 -0.7087 0.7087 0.7055 -4.404 6.2785)" class="st0" width="1.96" height="3.54"/>
	
		<rect x="8.92" y="7.46" transform="matrix(0.7087 -0.7055 0.7055 0.7087 -2.8384 10.0024)" class="st0" width="3.54" height="1.96"/>
	<rect x="3.58" y="12.79" transform="matrix(0.707 -0.7072 0.7072 0.707 -8.1743 7.8224)" class="st0" width="3.55" height="1.96"/>
</g>
</svg>
