<?xml version="1.0" encoding="utf-8"?>
<!-- Generator: Adobe Illustrator 23.1.1, SVG Export Plug-In . SVG Version: 6.00 Build 0)  -->
<svg version="1.0" id="Layer_1" xmlns="http://www.w3.org/2000/svg" xmlns:xlink="http://www.w3.org/1999/xlink" x="0px" y="0px"
	 viewBox="0 0 98.53 95.53" style="enable-background:new 0 0 98.53 95.53;" xml:space="preserve">
<style type="text/css">
	.st0{fill:#FFFFFF;}
</style>
<g>
	<path class="st0" d="M28.84,32.51c2.44,0,4.56-1.73,5.05-4.12h2.77l8.26,8.24h3.51v4.3H29.77v0c-0.49-2.39-2.61-4.12-5.05-4.12
		c-2.84,0-5.15,2.31-5.15,5.15s2.31,5.15,5.15,5.15c2.44,0,4.56-1.73,5.05-4.12h18.65v4.31l-3.53,0.01l-8.23,8.23h-4.83v0
		c-0.49-2.39-2.61-4.12-5.05-4.12c-2.84,0-5.15,2.31-5.15,5.15s2.31,5.15,5.15,5.15c2.44,0,4.56-1.73,5.05-4.12l5.69-0.01l8.23-8.23
		h2.67v13.15l-3.52,3.52h-2.77v0c-0.49-2.39-2.61-4.12-5.05-4.12c-2.84,0-5.15,2.31-5.15,5.15c0,2.84,2.31,5.15,5.15,5.15
		c2.44,0,4.56-1.73,5.05-4.12l3.63-0.01l3.69-3.69l3.71,3.7h3.61v0c0.49,2.39,2.61,4.12,5.05,4.12c2.84,0,5.15-2.31,5.15-5.15
		c0-2.84-2.31-5.15-5.15-5.15c-2.44,0-4.56,1.73-5.05,4.12H54l-3.52-3.52V49.36h2.67l8.26,8.24h5.67v0
		c0.49,2.39,2.61,4.12,5.05,4.12c2.84,0,5.15-2.31,5.15-5.15s-2.31-5.15-5.15-5.15c-2.44,0-4.56,1.73-5.05,4.12h-4.83l-8.26-8.24
		h-3.51V43h18.65v0c0.49,2.39,2.61,4.12,5.05,4.12c2.84,0,5.15-2.31,5.15-5.15s-2.31-5.15-5.15-5.15c-2.44,0-4.56,1.73-5.05,4.12
		H50.48v-4.31l3.53-0.01l8.23-8.23h2.77c0.49,2.39,2.61,4.12,5.05,4.12c2.84,0,5.15-2.31,5.15-5.15s-2.31-5.15-5.15-5.15
		c-2.44,0-4.56,1.73-5.05,4.12l-3.63,0.01l-8.23,8.23h-2.67V20.48L54,16.96h2.77v0c0.49,2.39,2.61,4.12,5.05,4.12
		c2.84,0,5.15-2.31,5.15-5.15s-2.31-5.15-5.15-5.15c-2.44,0-4.56,1.73-5.05,4.12l-3.63,0.01l-3.69,3.69l-3.71-3.7h-3.61v0
		c-0.49-2.39-2.61-4.12-5.05-4.12c-2.84,0-5.15,2.31-5.15,5.15s2.31,5.15,5.15,5.15c2.44,0,4.56-1.73,5.05-4.12h2.77l3.52,3.52
		v14.09h-2.67l-8.26-8.24h-3.61c-0.49-2.39-2.61-4.12-5.05-4.12c-2.84,0-5.15,2.31-5.15,5.15S26,32.51,28.84,32.51z M28.84,24.27
		c1.7,0,3.09,1.39,3.09,3.09s-1.39,3.09-3.09,3.09c-1.71,0-3.09-1.39-3.09-3.09S27.14,24.27,28.84,24.27z M24.72,45.06
		c-1.71,0-3.09-1.39-3.09-3.09c0-1.7,1.39-3.09,3.09-3.09s3.09,1.39,3.09,3.09C27.81,43.67,26.43,45.06,24.72,45.06z M26.78,59.67
		c-1.7,0-3.09-1.39-3.09-3.09s1.39-3.09,3.09-3.09c1.71,0,3.09,1.39,3.09,3.09S28.49,59.67,26.78,59.67z M37.09,70.16
		c-1.7,0-3.09-1.39-3.09-3.09c0-1.7,1.39-3.09,3.09-3.09c1.71,0,3.09,1.39,3.09,3.09C40.18,68.77,38.79,70.16,37.09,70.16z
		 M61.82,63.97c1.7,0,3.09,1.39,3.09,3.09c0,1.71-1.39,3.09-3.09,3.09c-1.71,0-3.09-1.39-3.09-3.09
		C58.73,65.36,60.11,63.97,61.82,63.97z M72.12,53.48c1.7,0,3.09,1.39,3.09,3.09s-1.39,3.09-3.09,3.09c-1.71,0-3.09-1.39-3.09-3.09
		S70.42,53.48,72.12,53.48z M74.18,38.88c1.71,0,3.09,1.39,3.09,3.09c0,1.71-1.39,3.09-3.09,3.09s-3.09-1.39-3.09-3.09
		C71.09,40.26,72.48,38.88,74.18,38.88z M70.06,24.27c1.71,0,3.09,1.39,3.09,3.09s-1.39,3.09-3.09,3.09c-1.7,0-3.09-1.39-3.09-3.09
		S68.36,24.27,70.06,24.27z M61.82,12.84c1.7,0,3.09,1.39,3.09,3.09s-1.39,3.09-3.09,3.09c-1.71,0-3.09-1.39-3.09-3.09
		S60.11,12.84,61.82,12.84z M37.09,19.02c-1.7,0-3.09-1.39-3.09-3.09s1.39-3.09,3.09-3.09c1.71,0,3.09,1.39,3.09,3.09
		S38.79,19.02,37.09,19.02z"/>
	<path class="st0" d="M95.16,82.8h-1.1V26.83c0-0.23-0.07-0.45-0.2-0.62v-0.28h-0.28c-0.18-0.12-0.39-0.2-0.62-0.2H80.18
		c-0.61,0-1.1,0.49-1.1,1.1s0.49,1.1,1.1,1.1h11.68V82.8H65.05c-1.75,0-3.51,0.42-5.09,1.2c-1.3,0.65-2.74,1-4.16,1H43.1
		c-1.42,0-2.84-0.34-4.11-0.97c-1.6-0.8-3.38-1.23-5.13-1.23H7.04V27.92h11.68c0.61,0,1.1-0.49,1.1-1.1s-0.49-1.1-1.1-1.1H5.94
		c-0.23,0-0.45,0.07-0.62,0.2H5.04v0.28c-0.12,0.18-0.2,0.39-0.2,0.62V82.8h-1.1c-1.82,0-3.29,1.48-3.29,3.29v2.19
		c0,2.94,2.45,6.49,5.49,6.49h87.02c3.04,0,5.49-3.55,5.49-6.49V86.1C98.45,84.28,96.97,82.8,95.16,82.8z M92.96,92.58H5.94
		c-1.74,0-3.29-2.4-3.29-4.29V86.1c0-0.61,0.49-1.1,1.1-1.1h30.11c1.42,0,2.84,0.33,4.11,0.97c1.6,0.8,3.38,1.23,5.13,1.23H55.8
		c1.75,0,3.51-0.42,5.09-1.2c1.3-0.65,2.74-0.99,4.16-0.99h30.11c0.61,0,1.1,0.49,1.1,1.1v2.19C96.26,90.18,94.71,92.58,92.96,92.58
		z"/>
	<path class="st0" d="M89.2,30.31c-0.18-0.12-0.39-0.19-0.62-0.19h-8.39c-0.61,0-1.1,0.49-1.1,1.1c0,0.6,0.49,1.1,1.1,1.1h7.29v46.1
		H11.43v-46.1h7.29c0.61,0,1.1-0.49,1.1-1.1c0-0.61-0.49-1.1-1.1-1.1h-8.39c-0.23,0-0.45,0.07-0.62,0.19H9.43v0.28
		c-0.12,0.18-0.2,0.39-0.2,0.62v48.29c0,0.23,0.07,0.45,0.2,0.62v0.28h0.28c0.18,0.12,0.39,0.2,0.62,0.2h78.24
		c0.23,0,0.45-0.07,0.62-0.2h0.28v-0.28c0.12-0.18,0.2-0.39,0.2-0.62V31.22c0-0.23-0.07-0.45-0.2-0.62v-0.28H89.2z"/>
	<rect x="9.45" y="87.78" class="st0" width="10" height="2"/>
	<rect x="79.45" y="87.78" class="st0" width="10" height="2"/>
	
		<rect x="20.76" y="6.05" transform="matrix(0.7071 -0.7071 0.7071 0.7071 0.8322 17.6663)" class="st0" width="1.96" height="3.55"/>
	
		<rect x="15.42" y="0.72" transform="matrix(0.7055 -0.7087 0.7087 0.7055 3.0641 12.3563)" class="st0" width="1.96" height="3.54"/>
	
		<rect x="19.97" y="1.51" transform="matrix(0.7088 -0.7054 0.7054 0.7088 4.5729 16.0608)" class="st0" width="3.54" height="1.96"/>
	<rect x="14.63" y="6.85" transform="matrix(0.707 -0.7072 0.7072 0.707 -0.731 13.8928)" class="st0" width="3.55" height="1.96"/>
	
		<rect x="84.76" y="11.05" transform="matrix(0.7071 -0.7071 0.7071 0.7071 16.0419 64.3856)" class="st0" width="1.96" height="3.55"/>
	
		<rect x="79.42" y="5.72" transform="matrix(0.7055 -0.7087 0.7087 0.7055 18.3675 59.185)" class="st0" width="1.96" height="3.54"/>
	
		<rect x="83.97" y="6.51" transform="matrix(0.7088 -0.7054 0.7054 0.7088 19.6799 62.6598)" class="st0" width="3.54" height="1.96"/>
	
		<rect x="78.63" y="11.85" transform="matrix(0.707 -0.7072 0.7072 0.707 14.486 60.6207)" class="st0" width="3.55" height="1.96"/>
</g>
</svg>
